<svg xmlns="http://www.w3.org/2000/svg" width="600" height="600">
  <path
    style="stroke:black; stroke-width:3; fill:green"
    d="M 404.638359 316.002992
       Q 398.163009 324.978999 389.997049 332.709973
       Q 382.491633 339.860653 373.746269 345.731668
       Q 373.055215 356.199671 370.639571 366.227159
       Q 368.052557 377.114800 363.544759 387.155949
       Q 379.237004 390.360098 394.525475 388.826906
       Q 414.016998 387.221597 431.199680 378.450173
       Q 430.135823 359.312089 421.706227 341.763837
       Q 415.323612 327.876672 404.638359 316.002992
       z"
  />
  <path
    style="stroke:black; stroke-width:3; fill:green"
    d="M 419.600075 288.134242
       Q 424.499646 275.128526 426.075343 261.396978
       Q 427.979028 245.850086 425.537348 230.318267
       Q 437.837109 223.126849 448.050748 217.137122
       Q 463.220568 208.270511 474.457783 201.675242
       Q 497.383724 241.371168 492.844147 285.003870
       Q 489.406514 321.433603 468.245672 347.980973
       Q 460.449176 328.207393 445.209747 311.300513
       Q 434.344525 298.599790 419.600075 288.134242
       z"
  />
  <path
    style="stroke:black; stroke-width:3; fill:green"
    d="M 300.000000 503.746305
       Q 300.000000 490.884502 300.000000 473.484795
       Q 300.000000 461.789759 300.000000 447.684322
       Q 314.639832 442.095222 327.117564 432.740905
       Q 338.188934 424.574244 346.969368 413.893234
       Q 363.481066 421.298818 379.994904 424.219046
       Q 402.351531 428.802604 423.469355 425.510502
       Q 411.127884 456.971889 381.332283 478.085009
       Q 345.851882 503.746305 300.000000 503.746305
       z"
  />
  <path
    style="stroke:black; stroke-width:3; fill:orange"
    d="M 258.906401 205.976184
       Q 269.889548 207.147006 280.642522 210.398604
       Q 290.563582 213.366632 300.000000 218.041097
       Q 309.436418 213.366632 319.357478 210.398604
       Q 330.110452 207.147006 341.093599 205.976184
       Q 336.086608 190.678975 327.180752 178.094381
       Q 316.118826 161.893350 300.000000 151.279873
       Q 283.881174 161.893350 272.819248 178.094381
       Q 263.913392 190.678975 258.906401 205.976184
       z"
  />
  <path
    style="stroke:black; stroke-width:3; fill:orange"
    d="M 227.369293 206.807479
       Q 213.689288 209.004955 201.042220 214.443319
       Q 186.660804 220.501434 174.462652 230.318267
       Q 162.162891 223.126849 151.949252 217.137122
       Q 136.779432 208.270511 125.542217 201.675242
       Q 148.468158 161.979315 188.488136 144.178229
       Q 221.721370 129.017321 255.223682 134.195617
       Q 241.902354 150.987236 234.785157 172.790523
       Q 229.136541 188.683267 227.369293 206.807479
       z"
  />
  <path
    style="stroke:black; stroke-width:3; fill:orange"
    d="M 474.457783 201.675242
       Q 463.220568 208.270511 448.050748 217.137122
       Q 437.837109 223.126849 425.537348 230.318267
       Q 413.339196 220.501434 398.957780 214.443319
       Q 386.310712 209.004955 372.630707 206.807479
       Q 370.863459 188.683267 365.214843 172.790523
       Q 358.097646 150.987236 344.776318 134.195617
       Q 378.278630 129.017321 411.511864 144.178229
       Q 451.531842 161.979315 474.457783 201.675242
       z"
  />
  <path
    style="stroke:black; stroke-width:3; fill:purple"
    d="M 236.455241 387.155949
       Q 231.947443 377.114800 229.360429 366.227159
       Q 226.944785 356.199671 226.253731 345.731668
       Q 217.508367 339.860653 210.002951 332.709973
       Q 201.836991 324.978999 195.361641 316.002992
       Q 184.676388 327.876672 178.293773 341.763837
       Q 169.864177 359.312089 168.800320 378.450173
       Q 185.983002 387.221597 205.474525 388.826906
       Q 220.762996 390.360098 236.455241 387.155949
       z"
  />
  <path
    style="stroke:black; stroke-width:3; fill:purple"
    d="M 253.030632 413.893234
       Q 261.811066 424.574244 272.882436 432.740905
       Q 285.360168 442.095222 300.000000 447.684322
       Q 300.000000 461.789759 300.000000 473.484795
       Q 300.000000 490.884502 300.000000 503.746305
       Q 254.148118 503.746305 218.667717 478.085009
       Q 188.872116 456.971889 176.530645 425.510502
       Q 197.648469 428.802604 220.005096 424.219046
       Q 236.518934 421.298818 253.030632 413.893234
       z"
  />
  <path
    style="stroke:black; stroke-width:3; fill:purple"
    d="M 125.542217 201.675242
       Q 136.779432 208.270511 151.949252 217.137122
       Q 162.162891 223.126849 174.462652 230.318267
       Q 172.020972 245.850086 173.924657 261.396978
       Q 175.500354 275.128526 180.399925 288.134242
       Q 165.655475 298.599790 154.790253 311.300513
       Q 139.550824 328.207393 131.754328 347.980973
       Q 110.593486 321.433603 107.155853 285.003870
       Q 102.616276 241.371168 125.542217 201.675242
       z"
  />
  <path
    style="stroke:black; stroke-width:3; fill:red"
    d="M 300.000000 272.611998
       Q 300.000000 280.294506 300.000000 288.104578
       Q 300.000000 295.749056 300.000000 303.429191
       Q 293.346635 307.269259 286.732038 311.077857
       Q 279.974071 314.969105 273.334398 318.783092
       Q 267.915715 309.400722 263.851759 299.431115
       Q 259.645009 289.117649 257.021815 278.530579
       Q 267.480694 275.550278 278.506201 274.057166
       Q 289.162633 272.611998 300.000000 272.611998
       z"
  />
  <path
    style="stroke:black; stroke-width:3; fill:red"
    d="M 300.000000 252.020019
       Q 300.000000 243.553106 300.000000 235.464888
       Q 300.000000 226.488813 300.000000 218.041097
       Q 290.563582 213.366632 280.642522 210.398604
       Q 269.889548 207.147006 258.906401 205.976184
       Q 254.661365 218.522339 253.374147 232.382435
       Q 252.202853 244.320058 253.346264 256.811412
       Q 264.824604 254.395452 276.791202 253.187612
       Q 288.317441 252.020019 300.000000 252.020019
       z"
  />
  <path
    style="stroke:black; stroke-width:3; fill:red"
    d="M 195.361641 316.002992
       Q 201.836991 324.978999 210.002951 332.709973
       Q 217.508367 339.860653 226.253731 345.731668
       Q 233.529383 341.581700 241.269468 337.155932
       Q 248.242140 333.171073 255.550062 328.984428
       Q 249.708782 318.870340 244.970427 308.284813
       Q 240.047008 297.297491 236.427227 286.106473
       Q 225.071831 291.297021 215.363005 298.198164
       Q 204.050171 306.154870 195.361641 316.002992
       z"
  />
  <path
    style="stroke:black; stroke-width:3; fill:red"
    d="M 180.399925 288.134242
       Q 175.500354 275.128526 173.924657 261.396978
       Q 172.020972 245.850086 174.462652 230.318267
       Q 186.660804 220.501434 201.042220 214.443319
       Q 213.689288 209.004955 227.369293 206.807479
       Q 225.754983 221.137992 226.802369 236.543152
       Q 227.579593 249.530010 230.339370 262.988882
       Q 217.341366 267.257348 205.754427 272.987350
       Q 191.941857 279.684918 180.399925 288.134242
       z"
  />
  <path
    style="stroke:black; stroke-width:3; fill:blue"
    d="M 273.334398 318.783092
       Q 279.974071 314.969105 286.732038 311.077857
       Q 293.346635 307.269259 300.000000 303.429191
       Q 306.653365 307.269259 313.267962 311.077857
       Q 320.025929 314.969105 326.665602 318.783092
       Q 321.246919 328.165461 314.654442 336.647310
       Q 307.835684 345.424346 300.000000 352.946670
       Q 292.164316 345.424346 285.345558 336.647310
       Q 278.753081 328.165461 273.334398 318.783092
       z"
  />
  <path
    style="stroke:black; stroke-width:3; fill:blue"
    d="M 255.550062 328.984428
       Q 248.242140 333.171073 241.269468 337.155932
       Q 233.529383 341.581700 226.253731 345.731668
       Q 226.944785 356.199671 229.360429 366.227159
       Q 231.947443 377.114800 236.455241 387.155949
       Q 249.388806 384.658045 261.988858 378.930137
       Q 272.868978 374.057071 283.080964 366.886724
       Q 275.222404 358.203167 268.179225 348.470502
       Q 261.391341 339.098517 255.550062 328.984428
       z"
  />
  <path
    style="stroke:black; stroke-width:3; fill:blue"
    d="M 363.544759 387.155949
       Q 368.052557 377.114800 370.639571 366.227159
       Q 373.055215 356.199671 373.746269 345.731668
       Q 366.470617 341.581700 358.730532 337.155932
       Q 351.757860 333.171073 344.449938 328.984428
       Q 338.608659 339.098517 331.820775 348.470502
       Q 324.777596 358.203167 316.919036 366.886724
       Q 327.131022 374.057071 338.011142 378.930137
       Q 350.611194 384.658045 363.544759 387.155949
       z"
  />
  <path
    style="stroke:black; stroke-width:3; fill:blue"
    d="M 346.969368 413.893234
       Q 338.188934 424.574244 327.117564 432.740905
       Q 314.639832 442.095222 300.000000 447.684322
       Q 285.360168 442.095222 272.882436 432.740905
       Q 261.811066 424.574244 253.030632 413.893234
       Q 266.186874 408.239064 278.952058 399.727963
       Q 289.761773 392.652208 300.000000 383.605230
       Q 310.238227 392.652208 321.047942 399.727963
       Q 333.813126 408.239064 346.969368 413.893234
       z"
  />
  <path
    style="stroke:black; stroke-width:3; fill:yellow"
    d="M 326.665602 318.783092
       Q 320.025929 314.969105 313.267962 311.077857
       Q 306.653365 307.269259 300.000000 303.429191
       Q 300.000000 295.749056 300.000000 288.104578
       Q 300.000000 280.294506 300.000000 272.611998
       Q 310.837367 272.611998 321.493799 274.057166
       Q 332.519306 275.550278 342.978185 278.530579
       Q 340.354991 289.117649 336.148241 299.431115
       Q 332.084285 309.400722 326.665602 318.783092
       z"
  />
  <path
    style="stroke:black; stroke-width:3; fill:yellow"
    d="M 344.449938 328.984428
       Q 351.757860 333.171073 358.730532 337.155932
       Q 366.470617 341.581700 373.746269 345.731668
       Q 382.491633 339.860653 389.997049 332.709973
       Q 398.163009 324.978999 404.638359 316.002992
       Q 395.949829 306.154870 384.636995 298.198164
       Q 374.928169 291.297021 363.572773 286.106473
       Q 359.952992 297.297491 355.029573 308.284813
       Q 350.291218 318.870340 344.449938 328.984428
       z"
  />
  <path
    style="stroke:black; stroke-width:3; fill:yellow"
    d="M 341.093599 205.976184
       Q 330.110452 207.147006 319.357478 210.398604
       Q 309.436418 213.366632 300.000000 218.041097
       Q 300.000000 226.488813 300.000000 235.464888
       Q 300.000000 243.553106 300.000000 252.020019
       Q 311.682559 252.020019 323.208798 253.187612
       Q 335.175396 254.395452 346.653736 256.811412
       Q 347.797147 244.320058 346.625853 232.382435
       Q 345.338635 218.522339 341.093599 205.976184
       z"
  />
  <path
    style="stroke:black; stroke-width:3; fill:yellow"
    d="M 372.630707 206.807479
       Q 386.310712 209.004955 398.957780 214.443319
       Q 413.339196 220.501434 425.537348 230.318267
       Q 427.979028 245.850086 426.075343 261.396978
       Q 424.499646 275.128526 419.600075 288.134242
       Q 408.058143 279.684918 394.245573 272.987350
       Q 382.658634 267.257348 369.660630 262.988882
       Q 372.420407 249.530010 373.197631 236.543152
       Q 374.245017 221.137992 372.630707 206.807479
       z"
  />
  <path
    style="stroke:black; stroke-width:3; fill:green"
    d="M 468.245672 347.980973
       Q 460.195502 358.449355 450.057253 366.432985
       Q 441.256929 373.534477 431.199680 378.450173
       Q 432.007151 389.550331 430.290093 400.659529
       Q 428.480057 413.364177 423.469355 425.510502
       Q 436.737680 423.853006 449.079677 419.273733
       Q 464.247677 414.047539 477.474548 404.771681
       Q 478.850116 388.763633 475.742757 373.107006
       Q 473.492414 360.212729 468.245672 347.980973
       z"
  />
  <path
    style="stroke:black; stroke-width:3; fill:orange"
    d="M 255.223682 134.195617
       Q 268.284555 135.988043 280.232840 140.837622
       Q 290.750221 144.966054 300.000000 151.279873
       Q 309.249779 144.966054 319.767160 140.837622
       Q 331.715445 135.988043 344.776318 134.195617
       Q 336.754734 123.453465 326.663080 114.977757
       Q 314.602439 104.371217 300.000000 97.477134
       Q 285.397561 104.371217 273.336920 114.977757
       Q 263.245266 123.453465 255.223682 134.195617
       z"
  />
  <path
    style="stroke:black; stroke-width:3; fill:purple"
    d="M 176.530645 425.510502
       Q 171.519943 413.364177 169.709907 400.659529
       Q 167.992849 389.550331 168.800320 378.450173
       Q 158.743071 373.534477 149.942747 366.432985
       Q 139.804498 358.449355 131.754328 347.980973
       Q 126.507586 360.212729 124.257243 373.107006
       Q 121.149884 388.763633 122.525452 404.771681
       Q 135.752323 414.047539 150.920323 419.273733
       Q 163.262320 423.853006 176.530645 425.510502
       z"
  />
  <path
    style="stroke:black; stroke-width:3; fill:red"
    d="M 253.346264 256.811412
       Q 253.840906 262.324732 254.791295 267.879178
       Q 255.698760 273.206744 257.021815 278.530579
       Q 251.760158 280.026374 246.705663 281.879329
       Q 241.433461 283.808039 236.427227 286.106473
       Q 234.589776 280.449297 233.098010 274.794767
       Q 231.527447 268.872133 230.339370 262.988882
       Q 236.011163 261.108645 241.911062 259.535098
       Q 247.539668 258.026752 253.346264 256.811412
       z"
  />
  <path
    style="stroke:black; stroke-width:3; fill:blue"
    d="M 283.080964 366.886724
       Q 287.592555 363.731826 291.914369 360.157532
       Q 296.061398 356.733315 300.000000 352.946670
       Q 303.938602 356.733315 308.085631 360.157532
       Q 312.407445 363.731826 316.919036 366.886724
       Q 312.949891 371.283584 308.813052 375.374902
       Q 304.483716 379.667854 300.000000 383.605230
       Q 295.516284 379.667854 291.186948 375.374902
       Q 287.050109 371.283584 283.080964 366.886724
       z"
  />
  <path
    style="stroke:black; stroke-width:3; fill:yellow"
    d="M 363.572773 286.106473
       Q 358.566539 283.808039 353.294337 281.879329
       Q 348.239842 280.026374 342.978185 278.530579
       Q 344.301240 273.206744 345.208705 267.879178
       Q 346.159094 262.324732 346.653736 256.811412
       Q 352.460332 258.026752 358.088938 259.535098
       Q 363.988837 261.108645 369.660630 262.988882
       Q 368.472553 268.872133 366.901990 274.794767
       Q 365.410224 280.449297 363.572773 286.106473
       z"
  />
  <path
    style="stroke:black; stroke-width:3; fill:green"
    d="M 419.501755 288.314454
       Q 416.719392 295.866842 412.834581 302.996683
       Q 409.229081 309.669773 404.711270 315.864782
       Q 415.323612 327.876672 421.706227 341.763837
       Q 430.135823 359.312089 431.199680 378.450173
       Q 441.256929 373.534477 450.057253 366.432985
       Q 460.195502 358.449355 468.245672 347.980973
       Q 460.449176 328.207393 445.209747 311.300513
       Q 434.344525 298.599790 419.600075 288.134242
       z"
  />
  <path
    style="stroke:black; stroke-width:3; fill:green"
    d="M 300.000000 545.418393
       Q 300.000000 539.306991 300.000000 525.497802
       Q 300.000000 516.582285 300.000000 503.838233
       Q 345.851882 503.746305 381.332283 478.085009
       Q 411.127884 456.971889 423.469355 425.510502
       Q 436.737680 423.853006 449.079677 419.273733
       Q 464.247677 414.047539 477.474548 404.771681
       Q 475.295374 452.138208 437.847418 490.171422
       Q 385.891028 545.973246 300.000000 545.973246
       z"
  />
  <path
    style="stroke:black; stroke-width:3; fill:green"
    d="M 347.075802 413.718916
       Q 352.204931 407.572673 356.417290 400.682384
       Q 360.374331 394.261048 363.461942 387.287381
       Q 379.237004 390.360098 394.525475 388.826906
       Q 414.016998 387.221597 431.199680 378.450173
       Q 432.007151 389.550331 430.290093 400.659529
       Q 428.480057 413.364177 423.469355 425.510502
       Q 402.351531 428.802604 379.994904 424.219046
       Q 363.481066 421.298818 346.969368 413.893234
       z"
  />
  <path
    style="stroke:black; stroke-width:3; fill:green"
    d="M 510.853918 180.327963
       Q 505.486082 183.510888 493.442842 190.554391
       Q 485.650619 195.130992 474.538684 201.627092
       Q 497.383724 241.371168 492.844147 285.003870
       Q 489.406514 321.433603 468.245672 347.980973
       Q 473.492414 360.212729 475.742757 373.107006
       Q 478.850116 388.763633 477.474548 404.771681
       Q 517.533643 379.003271 531.831594 327.439216
       Q 554.282460 254.405980 511.336946 180.046459
       z"
  />
  <path
    style="stroke:black; stroke-width:3; fill:orange"
    d="M 227.574047 206.803401
       Q 235.485540 205.474778 243.582710 205.310982
       Q 251.145250 205.132514 258.750672 205.981371
       Q 263.913392 190.678975 272.819248 178.094381
       Q 283.881174 161.893350 300.000000 151.279873
       Q 290.750221 144.966054 280.232840 140.837622
       Q 268.284555 135.988043 255.223682 134.195617
       Q 241.902354 150.987236 234.785157 172.790523
       Q 229.136541 188.683267 227.369293 206.807479
       z"
  />
  <path
    style="stroke:black; stroke-width:3; fill:orange"
    d="M 510.853918 180.327963
       Q 505.486082 183.510888 493.442842 190.554391
       Q 485.650619 195.130992 474.538684 201.627092
       Q 451.531842 161.979315 411.511864 144.178229
       Q 378.278630 129.017321 344.776318 134.195617
       Q 336.754734 123.453465 326.663080 114.977757
       Q 314.602439 104.371217 300.000000 97.477134
       Q 342.238269 75.481932 393.984176 88.758457
       Q 468.391432 105.686939 511.336946 180.046459
       z"
  />
  <path
    style="stroke:black; stroke-width:3; fill:orange"
    d="M 372.425953 206.803401
       Q 364.514460 205.474778 356.417290 205.310982
       Q 348.854750 205.132514 341.249328 205.981371
       Q 336.086608 190.678975 327.180752 178.094381
       Q 316.118826 161.893350 300.000000 151.279873
       Q 309.249779 144.966054 319.767160 140.837622
       Q 331.715445 135.988043 344.776318 134.195617
       Q 358.097646 150.987236 365.214843 172.790523
       Q 370.863459 188.683267 372.630707 206.807479
       z"
  />
  <path
    style="stroke:black; stroke-width:3; fill:orange"
    d="M 89.146082 180.327963
       Q 94.513918 183.510888 106.557158 190.554391
       Q 114.349381 195.130992 125.461316 201.627092
       Q 148.468158 161.979315 188.488136 144.178229
       Q 221.721370 129.017321 255.223682 134.195617
       Q 263.245266 123.453465 273.336920 114.977757
       Q 285.397561 104.371217 300.000000 97.477134
       Q 257.761731 75.481932 206.015824 88.758457
       Q 131.608568 105.686939 88.663054 180.046459
       z"
  />
  <path
    style="stroke:black; stroke-width:3; fill:purple"
    d="M 252.924198 413.718916
       Q 247.795069 407.572673 243.582710 400.682384
       Q 239.625669 394.261048 236.538058 387.287381
       Q 220.762996 390.360098 205.474525 388.826906
       Q 185.983002 387.221597 168.800320 378.450173
       Q 167.992849 389.550331 169.709907 400.659529
       Q 171.519943 413.364177 176.530645 425.510502
       Q 197.648469 428.802604 220.005096 424.219046
       Q 236.518934 421.298818 253.030632 413.893234
       z"
  />
  <path
    style="stroke:black; stroke-width:3; fill:purple"
    d="M 89.146082 180.327963
       Q 94.513918 183.510888 106.557158 190.554391
       Q 114.349381 195.130992 125.461316 201.627092
       Q 102.616276 241.371168 107.155853 285.003870
       Q 110.593486 321.433603 131.754328 347.980973
       Q 126.507586 360.212729 124.257243 373.107006
       Q 121.149884 388.763633 122.525452 404.771681
       Q 82.466357 379.003271 68.168406 327.439216
       Q 45.717540 254.405980 88.663054 180.046459
       z"
  />
  <path
    style="stroke:black; stroke-width:3; fill:purple"
    d="M 180.498245 288.314454
       Q 183.280608 295.866842 187.165419 302.996683
       Q 190.770919 309.669773 195.288730 315.864782
       Q 184.676388 327.876672 178.293773 341.763837
       Q 169.864177 359.312089 168.800320 378.450173
       Q 158.743071 373.534477 149.942747 366.432985
       Q 139.804498 358.449355 131.754328 347.980973
       Q 139.550824 328.207393 154.790253 311.300513
       Q 165.655475 298.599790 180.399925 288.134242
       z"
  />
  <path
    style="stroke:black; stroke-width:3; fill:purple"
    d="M 300.000000 545.418393
       Q 300.000000 539.306991 300.000000 525.497802
       Q 300.000000 516.582285 300.000000 503.838233
       Q 254.148118 503.746305 218.667717 478.085009
       Q 188.872116 456.971889 176.530645 425.510502
       Q 163.262320 423.853006 150.920323 419.273733
       Q 135.752323 414.047539 122.525452 404.771681
       Q 124.704626 452.138208 162.152582 490.171422
       Q 214.108972 545.973246 300.000000 545.973246
       z"
  />
  <path
    style="stroke:black; stroke-width:3; fill:red"
    d="M 300.000000 252.145738
       Q 300.000000 257.217831 300.000000 262.410971
       Q 300.000000 267.411655 300.000000 272.503995
       Q 289.162633 272.611998 278.506201 274.057166
       Q 267.480694 275.550278 257.021815 278.530579
       Q 255.698760 273.206744 254.791295 267.879178
       Q 253.840906 262.324732 253.346264 256.811412
       Q 264.824604 254.395452 276.791202 253.187612
       Q 288.317441 252.020019 300.000000 252.020019
       z"
  />
  <path
    style="stroke:black; stroke-width:3; fill:red"
    d="M 180.498245 288.314454
       Q 183.280608 295.866842 187.165419 302.996683
       Q 190.770919 309.669773 195.288730 315.864782
       Q 204.050171 306.154870 215.363005 298.198164
       Q 225.071831 291.297021 236.427227 286.106473
       Q 234.589776 280.449297 233.098010 274.794767
       Q 231.527447 268.872133 230.339370 262.988882
       Q 217.341366 267.257348 205.754427 272.987350
       Q 191.941857 279.684918 180.399925 288.134242
       z"
  />
  <path
    style="stroke:black; stroke-width:3; fill:red"
    d="M 255.658652 328.922125
       Q 260.035870 326.415130 264.521076 323.842202
       Q 268.839806 321.365069 273.241133 318.836577
       Q 267.915715 309.400722 263.851759 299.431115
       Q 259.645009 289.117649 257.021815 278.530579
       Q 251.760158 280.026374 246.705663 281.879329
       Q 241.433461 283.808039 236.427227 286.106473
       Q 240.047008 297.297491 244.970427 308.284813
       Q 249.708782 318.870340 255.550062 328.984428
       z"
  />
  <path
    style="stroke:black; stroke-width:3; fill:red"
    d="M 227.574047 206.803401
       Q 235.485540 205.474778 243.582710 205.310982
       Q 251.145250 205.132514 258.750672 205.981371
       Q 254.661365 218.522339 253.374147 232.382435
       Q 252.202853 244.320058 253.346264 256.811412
       Q 247.539668 258.026752 241.911062 259.535098
       Q 236.011163 261.108645 230.339370 262.988882
       Q 227.579593 249.530010 226.802369 236.543152
       Q 225.754983 221.137992 227.369293 206.807479
       z"
  />
  <path
    style="stroke:black; stroke-width:3; fill:blue"
    d="M 255.658652 328.922125
       Q 260.035870 326.415130 264.521076 323.842202
       Q 268.839806 321.365069 273.241133 318.836577
       Q 278.753081 328.165461 285.345558 336.647310
       Q 292.164316 345.424346 300.000000 352.946670
       Q 296.061398 356.733315 291.914369 360.157532
       Q 287.592555 363.731826 283.080964 366.886724
       Q 275.222404 358.203167 268.179225 348.470502
       Q 261.391341 339.098517 255.550062 328.984428
       z"
  />
  <path
    style="stroke:black; stroke-width:3; fill:blue"
    d="M 347.075802 413.718916
       Q 352.204931 407.572673 356.417290 400.682384
       Q 360.374331 394.261048 363.461942 387.287381
       Q 350.611194 384.658045 338.011142 378.930137
       Q 327.131022 374.057071 316.919036 366.886724
       Q 312.949891 371.283584 308.813052 375.374902
       Q 304.483716 379.667854 300.000000 383.605230
       Q 310.238227 392.652208 321.047942 399.727963
       Q 333.813126 408.239064 346.969368 413.893234
       z"
  />
  <path
    style="stroke:black; stroke-width:3; fill:blue"
    d="M 344.341348 328.922125
       Q 339.964130 326.415130 335.478924 323.842202
       Q 331.160194 321.365069 326.758867 318.836577
       Q 321.246919 328.165461 314.654442 336.647310
       Q 307.835684 345.424346 300.000000 352.946670
       Q 303.938602 356.733315 308.085631 360.157532
       Q 312.407445 363.731826 316.919036 366.886724
       Q 324.777596 358.203167 331.820775 348.470502
       Q 338.608659 339.098517 344.449938 328.984428
       z"
  />
  <path
    style="stroke:black; stroke-width:3; fill:blue"
    d="M 252.924198 413.718916
       Q 247.795069 407.572673 243.582710 400.682384
       Q 239.625669 394.261048 236.538058 387.287381
       Q 249.388806 384.658045 261.988858 378.930137
       Q 272.868978 374.057071 283.080964 366.886724
       Q 287.050109 371.283584 291.186948 375.374902
       Q 295.516284 379.667854 300.000000 383.605230
       Q 289.761773 392.652208 278.952058 399.727963
       Q 266.186874 408.239064 253.030632 413.893234
       z"
  />
  <path
    style="stroke:black; stroke-width:3; fill:yellow"
    d="M 344.341348 328.922125
       Q 339.964130 326.415130 335.478924 323.842202
       Q 331.160194 321.365069 326.758867 318.836577
       Q 332.084285 309.400722 336.148241 299.431115
       Q 340.354991 289.117649 342.978185 278.530579
       Q 348.239842 280.026374 353.294337 281.879329
       Q 358.566539 283.808039 363.572773 286.106473
       Q 359.952992 297.297491 355.029573 308.284813
       Q 350.291218 318.870340 344.449938 328.984428
       z"
  />
  <path
    style="stroke:black; stroke-width:3; fill:yellow"
    d="M 372.425953 206.803401
       Q 364.514460 205.474778 356.417290 205.310982
       Q 348.854750 205.132514 341.249328 205.981371
       Q 345.338635 218.522339 346.625853 232.382435
       Q 347.797147 244.320058 346.653736 256.811412
       Q 352.460332 258.026752 358.088938 259.535098
       Q 363.988837 261.108645 369.660630 262.988882
       Q 372.420407 249.530010 373.197631 236.543152
       Q 374.245017 221.137992 372.630707 206.807479
       z"
  />
  <path
    style="stroke:black; stroke-width:3; fill:yellow"
    d="M 300.000000 252.145738
       Q 300.000000 257.217831 300.000000 262.410971
       Q 300.000000 267.411655 300.000000 272.503995
       Q 310.837367 272.611998 321.493799 274.057166
       Q 332.519306 275.550278 342.978185 278.530579
       Q 344.301240 273.206744 345.208705 267.879178
       Q 346.159094 262.324732 346.653736 256.811412
       Q 335.175396 254.395452 323.208798 253.187612
       Q 311.682559 252.020019 300.000000 252.020019
       z"
  />
  <path
    style="stroke:black; stroke-width:3; fill:yellow"
    d="M 419.501755 288.314454
       Q 416.719392 295.866842 412.834581 302.996683
       Q 409.229081 309.669773 404.711270 315.864782
       Q 395.949829 306.154870 384.636995 298.198164
       Q 374.928169 291.297021 363.572773 286.106473
       Q 365.410224 280.449297 366.901990 274.794767
       Q 368.472553 268.872133 369.660630 262.988882
       Q 382.658634 267.257348 394.245573 272.987350
       Q 408.058143 279.684918 419.600075 288.134242
       z"
  />
</svg>