<svg xmlns="http://www.w3.org/2000/svg" width="600" height="600">
  <path
    style="stroke:black; stroke-width:3; fill:none"
    d="M 410.345139 386.137782
       Q 411.533053 373.947354 409.653943 361.782274
       Q 408.113511 351.165229 404.258651 340.962144
       Q 400.913185 331.917978 395.817644 323.464682"
  />
  <path
    style="stroke:black; stroke-width:3; fill:none"
    d="M 348.856044 383.212123
       Q 352.227380 377.210911 354.930960 370.790258
       Q 357.518226 364.672769 359.462893 358.241853
       Q 361.337669 352.066632 362.594128 345.668199"
  />
  <path
    style="stroke:black; stroke-width:3; fill:none"
    d="M 397.978122 426.457400
       Q 401.684742 419.708583 404.316125 412.561521
       Q 406.802690 405.920300 408.317705 399.042976
       Q 409.763170 392.648216 410.345139 386.137782"
  />
  <path
    style="stroke:black; stroke-width:3; fill:none"
    d="M 332.073087 406.247640
       Q 335.404831 402.691725 338.440328 398.829354
       Q 341.359829 395.129253 343.987365 391.167449
       Q 346.522179 387.358977 348.770618 383.328041"
  />
  <path
    style="stroke:black; stroke-width:3; fill:none"
    d="M 391.069278 389.086701
       Q 393.608262 378.115784 393.590573 366.779237
       Q 393.638674 356.643298 391.612964 346.563215
       Q 389.823094 337.431813 386.359893 328.607542"
  />
  <path
    style="stroke:black; stroke-width:3; fill:none"
    d="M 335.656501 377.838192
       Q 339.250477 372.511593 342.339946 366.782924
       Q 345.314656 361.280726 347.789567 355.459212
       Q 350.190449 349.822137 352.095779 343.938214"
  />
  <path
    style="stroke:black; stroke-width:3; fill:none"
    d="M 376.185123 423.441851
       Q 379.938049 417.887005 382.901951 411.917477
       Q 385.716658 406.304624 387.792944 400.399043
       Q 389.771547 394.840344 391.069278 389.086701"
  />
  <path
    style="stroke:black; stroke-width:3; fill:none"
    d="M 318.796149 398.015917
       Q 322.007403 394.918402 325.007415 391.554141
       Q 327.902190 388.317626 330.585436 384.847493
       Q 333.183158 381.496389 335.569823 377.941057"
  />
  <path
    style="stroke:black; stroke-width:3; fill:none"
    d="M 373.599489 388.678770
       Q 377.041904 378.905533 378.397302 368.536200
       Q 379.674617 359.077112 379.152646 349.414882
       Q 378.698528 340.493737 376.705328 331.640703"
  />
  <path
    style="stroke:black; stroke-width:3; fill:none"
    d="M 323.772500 371.381697
       Q 327.523698 366.632781 330.903562 361.515196
       Q 334.175235 356.568755 337.068525 351.317515
       Q 339.891520 346.198473 342.328473 340.831513"
  />
  <path
    style="stroke:black; stroke-width:3; fill:none"
    d="M 357.442265 418.058890
       Q 361.117540 413.426975 364.209362 408.398636
       Q 367.161556 403.629126 369.553295 398.553493
       Q 371.842169 393.731181 373.599489 388.678770"
  />
  <path
    style="stroke:black; stroke-width:3; fill:none"
    d="M 306.933227 389.234318
       Q 310.037616 386.496685 312.995652 383.530234
       Q 315.857214 380.667179 318.569683 377.600116
       Q 321.203171 374.627799 323.685242 371.473624"
  />
  <path
    style="stroke:black; stroke-width:3; fill:none"
    d="M 357.885620 385.881741
       Q 361.928809 377.197625 364.292722 367.799324
       Q 366.510942 359.083971 367.205290 349.993817
       Q 367.873529 341.462824 367.169405 332.815014"
  />
  <path
    style="stroke:black; stroke-width:3; fill:none"
    d="M 313.051047 364.076745
       Q 316.923168 359.823119 320.532970 355.244100
       Q 324.042453 350.796399 327.276012 346.072417
       Q 330.446290 341.443005 333.326296 336.581424"
  />
  <path
    style="stroke:black; stroke-width:3; fill:none"
    d="M 341.152974 411.206366
       Q 344.702548 407.285564 347.817926 403.000422
       Q 350.806555 398.909042 353.369695 394.520287
       Q 355.833935 390.320617 357.885620 385.881741"
  />
  <path
    style="stroke:black; stroke-width:3; fill:none"
    d="M 296.248754 380.024057
       Q 299.265719 377.571143 302.187054 374.925222
       Q 305.018678 372.365173 307.750554 369.630896
       Q 310.408810 366.973899 312.963442 364.159496"
  />
  <path
    style="stroke:black; stroke-width:3; fill:none"
    d="M 343.772884 381.355153
       Q 348.220418 373.626834 351.332911 365.141044
       Q 354.274593 357.166162 355.950840 348.714548
       Q 357.555322 340.672912 357.967374 332.382585"
  />
  <path
    style="stroke:black; stroke-width:3; fill:none"
    d="M 303.365434 356.080646
       Q 307.341771 352.254353 311.145570 348.152276
       Q 314.856299 344.152869 318.377291 339.915503
       Q 321.842645 335.746081 325.100377 331.372805"
  />
  <path
    style="stroke:black; stroke-width:3; fill:none"
    d="M 326.835470 403.395760
       Q 330.249476 400.025557 333.339698 396.327372
       Q 336.315420 392.778778 338.968694 388.952323
       Q 341.529947 385.270475 343.772884 381.355153"
  />
  <path
    style="stroke:black; stroke-width:3; fill:none"
    d="M 286.565365 370.452451
       Q 289.517122 368.226349 292.413829 365.841190
       Q 295.225741 363.529059 297.977634 361.072199
       Q 300.659937 358.679863 303.277428 356.155661"
  />
  <path
    style="stroke:black; stroke-width:3; fill:none"
    d="M 331.082983 375.544233
       Q 335.811930 368.641704 339.493169 360.987091
       Q 343.000741 353.715441 345.476586 345.918096
       Q 347.864743 338.413423 349.240638 330.575344"
  />
  <path
    style="stroke:black; stroke-width:3; fill:none"
    d="M 294.615368 347.498048
       Q 298.692706 344.044282 302.671933 340.368788
       Q 306.563707 336.775383 310.338115 332.989534
       Q 314.063626 329.253191 317.652067 325.350911"
  />
  <path
    style="stroke:black; stroke-width:3; fill:none"
    d="M 314.118231 394.921862
       Q 317.405580 391.981369 320.452648 388.749430
       Q 323.395569 385.636411 326.095779 382.269922
       Q 328.711071 379.016810 331.082983 375.544233"
  />
  <path
    style="stroke:black; stroke-width:3; fill:none"
    d="M 277.750104 360.552989
       Q 280.660292 358.508641 283.548631 356.337823
       Q 286.355414 354.230479 289.134743 352.007636
       Q 291.847166 349.839871 294.526718 347.566488"
  />
  <path
    style="stroke:black; stroke-width:3; fill:none"
    d="M 319.648716 368.748956
       Q 324.585876 362.556592 328.714707 355.649103
       Q 332.677595 349.030321 335.815818 341.876244
       Q 338.867625 334.925354 341.079666 327.596183"
  />
  <path
    style="stroke:black; stroke-width:3; fill:none"
    d="M 286.725232 338.396726
       Q 290.910024 335.272333 295.058718 331.983896
       Q 299.123381 328.762790 303.131256 325.400456
       Q 307.095152 322.075229 310.981487 318.629618"
  />
  <path
    style="stroke:black; stroke-width:3; fill:none"
    d="M 302.719539 385.955138
       Q 305.898127 383.352908 308.901078 380.494404
       Q 311.808096 377.733057 314.535157 374.744585
       Q 317.183540 371.847215 319.648716 368.748956"
  />
  <path
    style="stroke:black; stroke-width:3; fill:none"
    d="M 269.704356 350.336774
       Q 272.597617 348.438817 275.496767 346.446233
       Q 278.316047 344.509927 281.135006 342.487355
       Q 283.888421 340.512780 286.635559 338.459516"
  />
  <path
    style="stroke:black; stroke-width:3; fill:none"
    d="M 309.326631 361.171306
       Q 314.432387 355.590999 318.929928 349.353339
       Q 323.273229 343.335357 326.973315 336.801686
       Q 330.597297 330.404701 333.541999 323.617428"
  />
  <path
    style="stroke:black; stroke-width:3; fill:none"
    d="M 279.642116 328.817920
       Q 283.948162 325.990106 288.269849 323.059438
       Q 292.508344 320.185535 296.740365 317.226608
       Q 300.930885 314.296786 305.093167 311.298562"
  />
  <path
    style="stroke:black; stroke-width:3; fill:none"
    d="M 292.427000 376.592674
       Q 295.518876 374.258909 298.486350 371.702332
       Q 301.364070 369.227159 304.112135 366.551819
       Q 306.786519 363.951442 309.326631 361.171306"
  />
  <path
    style="stroke:black; stroke-width:3; fill:none"
    d="M 262.356789 339.798949
       Q 265.258871 338.019503 268.190458 336.177201
       Q 271.042363 334.385705 273.916877 332.537603
       Q 276.725875 330.732127 279.550935 328.875785"
  />
  <path
    style="stroke:black; stroke-width:3; fill:none"
    d="M 300.000000 352.946670
       Q 305.257710 347.897568 310.075532 342.263204
       Q 314.751087 336.798233 318.941531 330.859208
       Q 323.070008 325.008810 326.665602 318.783092"
  />
  <path
    style="stroke:black; stroke-width:3; fill:none"
    d="M 273.334398 318.783092
       Q 277.781523 316.228513 282.287207 313.636160
       Q 286.707581 311.092967 291.162563 308.525782
       Q 295.575556 305.982811 300.000000 303.429191"
  />
  <path
    style="stroke:black; stroke-width:3; fill:none"
    d="M 283.080964 366.886724
       Q 286.110073 364.767601 289.056333 362.457609
       Q 291.917175 360.217423 294.689441 357.804140
       Q 297.391676 355.453954 300.000000 352.946670"
  />
  <path
    style="stroke:black; stroke-width:3; fill:none"
    d="M 255.658652 328.922125
       Q 258.596846 327.239260 261.584981 325.525976
       Q 264.492101 323.859299 267.441401 322.166656
       Q 270.323821 320.512507 273.241133 318.836577"
  />
  <path
    style="stroke:black; stroke-width:3; fill:none"
    d="M 291.577965 344.164451
       Q 296.987152 339.581506 302.099042 334.496029
       Q 307.078788 329.543565 311.710715 324.175894
       Q 316.295287 318.863351 320.478482 313.212812"
  />
  <path
    style="stroke:black; stroke-width:3; fill:none"
    d="M 267.791263 308.298344
       Q 272.404651 306.002688 277.111543 303.738997
       Q 281.727593 301.518826 286.410606 299.340783
       Q 291.047635 297.184086 295.726326 295.080015"
  />
  <path
    style="stroke:black; stroke-width:3; fill:none"
    d="M 274.562123 356.860915
       Q 277.553410 354.914529 280.496300 352.808141
       Q 283.356426 350.762894 286.162141 348.571687
       Q 288.900133 346.434741 291.577965 344.164451"
  />
  <path
    style="stroke:black; stroke-width:3; fill:none"
    d="M 249.581008 317.677873
       Q 252.584846 316.074617 255.656520 314.474875
       Q 258.644208 312.918484 261.690845 311.368410
       Q 264.667702 309.853579 267.695244 308.347832"
  />
  <path
    style="stroke:black; stroke-width:3; fill:none"
    d="M 283.993581 334.881555
       Q 289.565673 330.713892 294.962012 326.135265
       Q 300.233167 321.663594 305.275302 316.849737
       Q 310.282923 312.068897 315.005574 307.006324"
  />
  <path
    style="stroke:black; stroke-width:3; fill:none"
    d="M 263.023405 297.357364
       Q 267.833389 295.315481 272.764090 293.381077
       Q 277.594369 291.485624 282.515212 289.704082
       Q 287.381897 287.942021 292.310680 286.301392"
  />
  <path
    style="stroke:black; stroke-width:3; fill:none"
    d="M 266.782606 346.519451
       Q 269.761853 344.712949 272.721867 342.776793
       Q 275.600199 340.895231 278.453017 338.895125
       Q 281.239082 336.942624 283.993581 334.881555"
  />
  <path
    style="stroke:black; stroke-width:3; fill:none"
    d="M 244.113685 306.026906
       Q 247.215877 304.490711 250.401657 302.994424
       Q 253.498612 301.538907 256.668782 300.124450
       Q 259.764500 298.742568 262.923869 297.403076"
  />
  <path
    style="stroke:black; stroke-width:3; fill:none"
    d="M 277.201995 325.131207
       Q 282.957757 321.340778 288.641746 317.239292
       Q 294.203392 313.226349 299.638143 308.956714
       Q 305.047807 304.706799 310.273725 300.247966"
  />
  <path
    style="stroke:black; stroke-width:3; fill:none"
    d="M 259.065228 285.943508
       Q 264.107324 284.160205 269.289226 282.567126
       Q 274.356198 281.008558 279.527930 279.642154
       Q 284.632294 278.293276 289.808574 277.140316"
  />
  <path
    style="stroke:black; stroke-width:3; fill:none"
    d="M 259.679837 335.852220
       Q 262.673936 334.159796 265.673962 332.368186
       Q 268.591846 330.626173 271.509020 328.793700
       Q 274.359052 327.003758 277.201995 325.131207"
  />
  <path
    style="stroke:black; stroke-width:3; fill:none"
    d="M 239.265956 293.918258
       Q 242.503601 292.440897 245.838612 291.043485
       Q 249.077713 289.684692 252.401845 288.405168
       Q 255.644704 287.155844 258.961301 285.985496"
  />
  <path
    style="stroke:black; stroke-width:3; fill:none"
    d="M 271.179335 314.928723
       Q 277.147452 311.489469 283.132606 307.847860
       Q 288.993244 304.281947 294.813622 300.556628
       Q 300.613531 296.844409 306.315451 293.011075"
  />
  <path
    style="stroke:black; stroke-width:3; fill:none"
    d="M 255.978918 274.031597
       Q 261.293960 272.523253 266.758602 271.296900
       Q 272.087653 270.099594 277.524874 269.180149
       Q 282.875368 268.274818 288.295502 267.645711"
  />
  <path
    style="stroke:black; stroke-width:3; fill:none"
    d="M 253.212571 324.837366
       Q 256.250090 323.238915 259.315599 321.572576
       Q 262.296900 319.951984 265.299035 318.270201
       Q 268.232184 316.627025 271.179335 314.928723"
  />
  <path
    style="stroke:black; stroke-width:3; fill:none"
    d="M 235.069220 281.287639
       Q 238.485352 279.865597 242.010571 278.568696
       Q 245.429972 277.308423 248.943527 276.170370
       Q 252.366273 275.060101 255.869605 274.069720"
  />
  <path
    style="stroke:black; stroke-width:3; fill:none"
    d="M 265.922648 304.275294
       Q 272.139061 301.172935 278.447550 297.986958
       Q 284.623287 294.867667 290.830348 291.698145
       Q 297.015346 288.539880 303.171910 285.362341"
  />
  <path
    style="stroke:black; stroke-width:3; fill:none"
    d="M 253.861011 261.590075
       Q 259.495123 260.387310 265.277151 259.569469
       Q 270.895113 258.772568 276.611560 258.347671
       Q 282.214369 257.930150 287.870220 257.874903"
  />
  <path
    style="stroke:black; stroke-width:3; fill:none"
    d="M 247.358772 313.442226
       Q 250.470751 311.922507 253.630312 310.367852
       Q 256.701838 308.855931 259.813021 307.313927
       Q 262.851749 305.807418 265.922648 304.275294"
  />
  <path
    style="stroke:black; stroke-width:3; fill:none"
    d="M 231.582312 268.055074
       Q 235.227882 266.690578 238.991777 265.503537
       Q 242.636253 264.350930 246.380687 263.369881
       Q 250.021229 262.413698 253.745181 261.623956"
  />
  <path
    style="stroke:black; stroke-width:3; fill:none"
    d="M 261.451115 293.160543
       Q 267.958873 290.393129 274.620340 287.672804
       Q 281.133402 285.012379 287.733865 282.423477
       Q 294.302866 279.846883 300.895394 277.366325"
  />
  <path
    style="stroke:black; stroke-width:3; fill:none"
    d="M 252.852342 248.584496
       Q 258.856329 247.736251 264.991503 247.389443
       Q 270.924124 247.050393 276.928966 247.186761
       Q 282.784025 247.317692 288.658120 247.902094"
  />
  <path
    style="stroke:black; stroke-width:3; fill:none"
    d="M 242.115176 301.623086
       Q 245.336177 300.171344 248.622267 298.720257
       Q 251.814440 297.309466 255.062681 295.902362
       Q 258.233081 294.528156 261.451115 293.160543"
  />
  <path
    style="stroke:black; stroke-width:3; fill:none"
    d="M 228.900614 254.122006
       Q 232.837008 252.824978 236.897542 251.767486
       Q 240.820072 250.741482 244.843828 249.944892
       Q 248.745857 249.169036 252.728716 248.613452"
  />
  <path
    style="stroke:black; stroke-width:3; fill:none"
    d="M 257.808898 281.564430
       Q 264.658276 279.143822 271.708806 276.915597
       Q 278.586021 274.740937 285.589692 272.773254
       Q 292.542764 270.819685 299.551479 269.090473"
  />
  <path
    style="stroke:black; stroke-width:3; fill:none"
    d="M 253.152612 234.983933
       Q 259.580039 234.563413 266.101349 234.776925
       Q 272.368818 234.976091 278.660687 235.763581
       Q 284.755583 236.522639 290.814109 237.829910"
  />
  <path
    style="stroke:black; stroke-width:3; fill:none"
    d="M 237.498663 289.324015
       Q 240.868091 287.934068 244.318195 286.584226
       Q 247.665991 285.272559 251.083902 284.002052
       Q 254.416227 282.762061 257.808898 281.564430"
  />
  <path
    style="stroke:black; stroke-width:3; fill:none"
    d="M 227.170989 239.368313
       Q 231.473188 238.159751 235.900130 237.266198
       Q 240.163561 236.399492 244.522826 235.831361
       Q 248.736026 235.277433 253.019776 235.006874"
  />
  <path
    style="stroke:black; stroke-width:3; fill:none"
    d="M 255.070059 269.459104
       Q 262.318689 267.413630 269.799517 265.723728
       Q 277.070366 264.079236 284.486862 262.792219
       Q 291.821505 261.519101 299.220772 260.610981"
  />
  <path
    style="stroke:black; stroke-width:3; fill:none"
    d="M 255.041257 220.773210
       Q 261.943787 220.886210 268.874033 221.783967
       Q 275.483115 222.630191 282.040445 224.186033
       Q 288.341047 225.674065 294.523723 227.805302"
  />
  <path
    style="stroke:black; stroke-width:3; fill:none"
    d="M 233.549798 276.474912
       Q 237.113593 275.145780 240.771631 273.901641
       Q 244.315761 272.693566 247.941448 271.569162
       Q 251.470783 270.472736 255.070059 269.459104"
  />
  <path
    style="stroke:black; stroke-width:3; fill:none"
    d="M 226.616083 223.650401
       Q 231.376432 222.568095 236.253659 221.894652
       Q 240.932043 221.240032 245.690588 220.968037
       Q 250.269705 220.699245 254.897704 220.788484"
  />
  <path
    style="stroke:black; stroke-width:3; fill:none"
    d="M 253.346264 256.811412
       Q 261.058890 255.190082 269.014250 254.109375
       Q 276.707877 253.060832 284.541965 252.536547
       Q 292.247980 252.020019 300.000000 252.020019"
  />
  <path
    style="stroke:black; stroke-width:3; fill:none"
    d="M 258.906401 205.976184
       Q 266.323788 206.772112 273.661854 208.522088
       Q 280.592298 210.158379 287.357900 212.630269
       Q 293.794225 214.969444 300.000000 218.041097"
  />
  <path
    style="stroke:black; stroke-width:3; fill:none"
    d="M 230.339370 262.988882
       Q 234.152148 261.726158 238.070252 260.600849
       Q 241.858604 259.509067 245.736689 258.550248
       Q 249.503669 257.616180 253.346264 256.811412"
  />
  <path
    style="stroke:black; stroke-width:3; fill:none"
    d="M 227.574047 206.803401
       Q 232.906216 205.911483 238.333080 205.547516
       Q 243.511578 205.187818 248.738177 205.314117
       Q 253.739434 205.424442 258.750672 205.981371"
  />
  <path
    style="stroke:black; stroke-width:3; fill:none"
    d="M 252.798282 243.587239
       Q 261.045448 242.466029 269.518613 242.096818
       Q 277.658878 241.736387 285.903436 242.083876
       Q 293.955563 242.421291 302.001822 243.434784"
  />
  <path
    style="stroke:black; stroke-width:3; fill:none"
    d="M 265.282873 190.699587
       Q 273.222874 192.384531 280.919103 195.207846
       Q 288.100922 197.814799 294.958102 201.379772
       Q 301.403828 204.708689 307.471685 208.843925"
  />
  <path
    style="stroke:black; stroke-width:3; fill:none"
    d="M 227.979350 248.759166
       Q 232.107105 247.577493 236.347750 246.596033
       Q 240.437011 245.644434 244.619632 244.884164
       Q 248.670997 244.143879 252.798282 243.587239"
  />
  <path
    style="stroke:black; stroke-width:3; fill:none"
    d="M 230.564126 188.654870
       Q 236.605690 188.059739 242.694902 188.146035
       Q 248.465594 188.209472 254.225734 188.886554
       Q 259.697395 189.513550 265.113865 190.691232"
  />
  <path
    style="stroke:black; stroke-width:3; fill:none"
    d="M 253.652694 229.759656
       Q 262.507098 229.250508 271.532989 229.735530
       Q 280.130123 230.187770 288.755298 231.547457
       Q 297.102561 232.858959 305.352267 235.008826"
  />
  <path
    style="stroke:black; stroke-width:3; fill:none"
    d="M 274.896146 175.214115
       Q 283.296258 178.062207 291.210119 182.236256
       Q 298.487371 186.027415 305.225099 190.880075
       Q 311.470019 195.338326 317.155679 200.647160"
  />
  <path
    style="stroke:black; stroke-width:3; fill:none"
    d="M 226.640776 233.656267
       Q 231.164185 232.583543 235.802544 231.788130
       Q 240.259793 231.016568 244.807184 230.506777
       Q 249.195731 230.009219 253.652694 229.759656"
  />
  <path
    style="stroke:black; stroke-width:3; fill:none"
    d="M 236.395442 169.068206
       Q 243.304391 168.944659 250.170069 169.701686
       Q 256.617454 170.384338 262.952275 171.836621
       Q 268.913026 173.177420 274.713752 175.187454"
  />
  <path
    style="stroke:black; stroke-width:3; fill:none"
    d="M 256.225568 215.324474
       Q 265.753714 215.587647 275.345373 217.121228
       Q 284.382013 218.549379 293.318624 221.096144
       Q 301.869134 223.523733 310.184013 226.945768"
  />
  <path
    style="stroke:black; stroke-width:3; fill:none"
    d="M 288.696132 160.099591
       Q 297.355117 164.450940 305.187212 170.292533
       Q 312.265037 175.489478 318.532474 181.807880
       Q 324.250585 187.501251 329.203739 194.042441"
  />
  <path
    style="stroke:black; stroke-width:3; fill:none"
    d="M 226.582891 217.526919
       Q 231.601074 216.611338 236.727107 216.069895
       Q 241.630744 215.541740 246.610511 215.361749
       Q 251.393477 215.180690 256.225568 215.324474"
  />
  <path
    style="stroke:black; stroke-width:3; fill:none"
    d="M 246.345059 148.060077
       Q 254.277436 148.691992 261.997948 150.460193
       Q 269.160308 152.054945 276.038499 154.602773
       Q 282.431702 156.928343 288.502486 160.048453"
  />
  <path
    style="stroke:black; stroke-width:3; fill:none"
    d="M 260.954794 200.329775
       Q 271.199617 201.589613 281.324063 204.429675
       Q 290.732441 207.040082 299.847226 210.982022
       Q 308.447361 214.683149 316.622808 219.514728"
  />
  <path
    style="stroke:black; stroke-width:3; fill:none"
    d="M 307.830850 146.488513
       Q 316.298080 152.704032 323.494377 160.503061
       Q 329.873902 167.268438 335.134279 175.139972
       Q 339.858666 182.075439 343.613067 189.793582"
  />
  <path
    style="stroke:black; stroke-width:3; fill:none"
    d="M 228.201008 200.199065
       Q 233.834952 199.520823 239.553833 199.340737
       Q 244.992304 199.154663 250.475355 199.423843
       Q 255.709228 199.668472 260.954794 200.329775"
  />
  <path
    style="stroke:black; stroke-width:3; fill:none"
    d="M 262.431179 126.097904
       Q 271.467207 127.931623 279.988182 131.214999
       Q 287.766557 134.134386 294.983400 138.202431
       Q 301.588279 141.851481 307.632505 146.405938"
  />
  <path
    style="stroke:black; stroke-width:3; fill:none"
    d="M 268.441081 184.931185
       Q 279.387867 187.493320 289.924503 191.969852
       Q 299.550677 196.009510 308.611307 201.576521
       Q 317.019257 206.707298 324.763519 213.065053"
  />
  <path
    style="stroke:black; stroke-width:3; fill:none"
    d="M 333.436065 136.419492
       Q 340.867806 144.732429 346.521711 154.587363
       Q 351.451536 162.887407 354.967297 172.177938
       Q 358.098426 180.162987 360.098378 188.802275"
  />
  <path
    style="stroke:black; stroke-width:3; fill:none"
    d="M 232.105847 181.503167
       Q 238.498982 181.193814 244.926232 181.543678
       Q 250.990835 181.851542 257.039598 182.747577
       Q 262.767195 183.576892 268.441081 184.931185"
  />
  <path
    style="stroke:black; stroke-width:3; fill:none"
    d="M 287.743531 104.814694
       Q 297.688367 108.487353 306.599423 113.946923
       Q 314.568197 118.687363 321.559068 124.738067
       Q 327.841671 130.038821 333.247163 136.300231"
  />
  <path
    style="stroke:black; stroke-width:3; fill:none"
    d="M 279.491175 169.493115
       Q 291.004295 173.755197 301.676954 180.263800
       Q 311.228552 186.000622 319.858799 193.412611
       Q 327.715614 200.093497 334.632070 208.035014"
  />
  <path
    style="stroke:black; stroke-width:3; fill:none"
    d="M 366.006430 133.177134
       Q 371.078693 143.361420 373.928826 154.874506
       Q 376.449235 164.262626 377.363230 174.439271
       Q 378.254240 182.964710 377.948517 191.983281"
  />
  <path
    style="stroke:black; stroke-width:3; fill:none"
    d="M 239.255161 161.335128
       Q 246.563984 161.608695 253.806328 162.751272
       Q 260.569618 163.783420 267.209258 165.566084
       Q 273.430934 167.205647 279.491175 169.493115"
  />
  <path
    style="stroke:black; stroke-width:3; fill:none"
    d="M 326.455024 88.559026
       Q 336.397353 94.730488 344.513295 102.939707
       Q 351.610036 109.835728 357.193669 118.084578
       Q 362.133466 125.099136 365.851436 133.023873"
  />
  <path
    style="stroke:black; stroke-width:3; fill:none"
    d="M 295.137977 154.766629
       Q 306.851816 161.200240 317.127679 170.155655
       Q 326.107139 177.822845 333.740264 187.222640
       Q 340.548192 195.478595 346.131442 204.944745"
  />
  <path
    style="stroke:black; stroke-width:3; fill:none"
    d="M 404.122183 141.117105
       Q 405.253050 151.993143 403.975507 163.899184
       Q 403.173825 173.303735 400.762320 183.298723
       Q 398.918166 191.474894 395.936806 200.019454"
  />
  <path
    style="stroke:black; stroke-width:3; fill:none"
    d="M 251.166552 139.822357
       Q 259.522577 141.021352 267.623338 143.357582
       Q 275.084741 145.452086 282.239111 148.485783
       Q 288.853378 151.238435 295.137977 154.766629"
  />
  <path
    style="stroke:black; stroke-width:3; fill:none"
    d="M 382.001940 86.872519
       Q 389.697752 95.390722 394.637163 105.945287
       Q 398.948087 114.457862 401.258376 124.189063
       Q 403.376124 132.190512 404.033094 140.950661"
  />
  <path
    style="stroke:black; stroke-width:3; fill:none"
    d="M 316.565667 142.176070
       Q 327.720195 151.228196 336.686297 162.931895
       Q 344.328982 172.610099 350.183977 183.946017
       Q 355.312827 193.617855 358.976025 204.359325"
  />
  <path
    style="stroke:black; stroke-width:3; fill:none"
    d="M 442.947274 164.010292
       Q 439.132401 173.200752 433.073633 183.291999
       Q 428.588566 191.051463 422.670918 199.352247
       Q 418.026319 206.013268 412.395807 213.032650"
  />
  <path
    style="stroke:black; stroke-width:3; fill:none"
    d="M 270.228361 117.738549
       Q 279.625624 120.384243 288.428820 124.488889
       Q 296.392054 128.101899 303.753822 132.848147
       Q 310.446516 137.070729 316.565667 142.176070"
  />
  <path
    style="stroke:black; stroke-width:3; fill:none"
    d="M 450.319613 114.699218
       Q 452.571143 122.809442 451.485525 132.775322
       Q 450.965510 140.482391 448.281229 149.253379
       Q 446.345135 156.237637 442.947754 163.875876"
  />
  <path
    style="stroke:black; stroke-width:3; fill:none"
    d="M 344.776318 134.195617
       Q 354.037272 146.017890 360.319674 160.380908
       Q 365.593065 171.799563 368.723718 184.659831
       Q 371.477052 195.300587 372.630707 206.807479"
  />
  <path
    style="stroke:black; stroke-width:3; fill:none"
    d="M 474.457783 201.675242
       Q 466.401224 206.400207 456.388876 212.255080
       Q 448.886510 216.653056 440.153717 221.760868
       Q 433.266643 225.797143 425.537348 230.318267"
  />
  <path
    style="stroke:black; stroke-width:3; fill:none"
    d="M 300.000000 97.477134
       Q 310.013848 102.250583 318.869458 108.809367
       Q 326.704292 114.424919 333.511543 121.318934
       Q 339.585441 127.294235 344.776318 134.195617"
  />
  <path
    style="stroke:black; stroke-width:3; fill:none"
    d="M 510.853918 180.327963
       Q 506.940385 182.644704 499.690551 186.890930
       Q 494.405886 189.996519 487.086850 194.278591
       Q 481.472970 197.571134 474.538684 201.627092"
  />
  <path
    style="stroke:black; stroke-width:3; fill:none"
    d="M 379.734285 134.585097
       Q 385.182947 148.509611 387.077659 164.625928
       Q 388.843764 176.921362 388.326339 190.374370
       Q 388.096035 201.177613 386.286991 212.652041"
  />
  <path
    style="stroke:black; stroke-width:3; fill:none"
    d="M 491.347528 247.814615
       Q 481.541363 246.631241 469.833965 246.941969
       Q 460.926734 247.044521 450.834070 248.116326
       Q 442.793303 248.896933 433.948107 250.350137"
  />
  <path
    style="stroke:black; stroke-width:3; fill:none"
    d="M 344.831461 85.022834
       Q 354.070012 92.403191 361.353330 101.778389
       Q 367.668321 109.514919 372.458320 118.548393
       Q 376.687939 126.132300 379.734285 134.585097"
  />
  <path
    style="stroke:black; stroke-width:3; fill:none"
    d="M 537.469953 265.598739
       Q 531.617264 259.676628 522.491856 255.721729
       Q 515.601091 252.397942 506.708590 250.419489
       Q 499.733781 248.679286 491.462990 247.879287"
  />
  <path
    style="stroke:black; stroke-width:3; fill:none"
    d="M 418.889851 147.785035
       Q 418.573026 161.715706 414.624726 177.503398
       Q 412.054000 189.099417 407.336133 201.673155
       Q 403.832727 211.513061 398.917076 221.935727"
  />
  <path
    style="stroke:black; stroke-width:3; fill:none"
    d="M 491.811124 292.949206
       Q 483.012437 286.632367 472.118549 281.887849
       Q 463.623954 277.972235 453.812939 275.155082
       Q 445.856759 272.748370 437.011958 271.140471"
  />
  <path
    style="stroke:black; stroke-width:3; fill:none"
    d="M 406.576093 92.365694
       Q 412.214799 101.367049 415.124689 112.366898
       Q 417.767067 121.064463 418.529498 130.961644
       Q 419.374735 138.991730 418.889851 147.785035"
  />
  <path
    style="stroke:black; stroke-width:3; fill:none"
    d="M 527.492851 338.787874
       Q 524.002499 327.937398 517.373170 318.460863
       Q 512.194858 310.542965 504.962652 303.751477
       Q 499.129327 297.985761 491.909645 293.107605"
  />
  <path
    style="stroke:black; stroke-width:3; fill:none"
    d="M 456.010231 176.526436
       Q 449.267106 187.011202 439.269274 199.462563
       Q 432.401550 208.343193 423.688632 218.299749
       Q 417.153586 225.946602 409.429544 234.261942"
  />
  <path
    style="stroke:black; stroke-width:3; fill:none"
    d="M 479.695956 330.028863
       Q 473.460416 320.633854 464.964061 312.500664
       Q 458.139287 305.707738 449.828331 299.911518
       Q 442.932716 294.954532 435.010792 290.785763"
  />
  <path
    style="stroke:black; stroke-width:3; fill:none"
    d="M 475.664806 134.521367
       Q 474.904841 140.968975 471.110358 149.486314
       Q 468.508691 155.943316 464.004402 163.634259
       Q 460.638781 169.685136 456.010231 176.526436"
  />
  <path
    style="stroke:black; stroke-width:3; fill:none"
    d="M 498.359923 386.209807
       Q 498.018928 374.575846 495.002354 363.509279
       Q 492.611277 353.977284 488.293659 345.082266
       Q 484.721015 337.357659 479.750232 330.237949"
  />
  <path
    style="stroke:black; stroke-width:3; fill:none"
    d="M 482.706864 218.376977
       Q 471.337344 222.191728 457.009918 228.599180
       Q 447.042315 233.051386 435.438449 238.945180
       Q 426.688161 243.413439 416.898379 248.785856"
  />
  <path
    style="stroke:black; stroke-width:3; fill:none"
    d="M 460.678487 356.737858
       Q 457.236784 346.223587 451.571563 336.479624
       Q 446.888065 328.134341 440.639591 320.518244
       Q 435.327012 313.883138 428.881389 307.899036"
  />
  <path
    style="stroke:black; stroke-width:3; fill:none"
    d="M 526.133945 211.507850
       Q 520.388376 210.213481 511.573008 211.328601
       Q 505.076528 211.982149 496.738215 214.159549
       Q 490.314446 215.761862 482.706864 218.376977"
  />
  <path
    style="stroke:black; stroke-width:3; fill:none"
    d="M 465.032727 411.788306
       Q 466.851895 401.391492 466.608492 391.000251
       Q 466.515256 381.781441 464.799615 372.756948
       Q 463.377896 364.717783 460.686484 356.959523"
  />
  <path
    style="stroke:black; stroke-width:3; fill:none"
    d="M 493.324803 265.228172
       Q 480.888930 261.484125 465.281005 260.885436
       Q 454.186344 260.266629 441.386038 261.477015
       Q 431.607676 262.328674 420.777867 264.353135"
  />
  <path
    style="stroke:black; stroke-width:3; fill:none"
    d="M 439.235011 374.012868
       Q 438.121585 363.639624 435.001749 353.576423
       Q 432.366688 344.733176 428.213725 336.305651
       Q 424.601710 328.806763 419.825918 321.755002"
  />
  <path
    style="stroke:black; stroke-width:3; fill:none"
    d="M 537.779610 295.867494
       Q 532.288071 286.935345 523.560869 280.235040
       Q 516.904150 274.697466 508.259418 270.759682
       Q 501.434048 267.418912 493.324803 265.228172"
  />
  <path
    style="stroke:black; stroke-width:3; fill:none"
    d="M 434.049199 423.251959
       Q 437.002590 414.553683 438.444293 405.579403
       Q 439.828895 397.428069 439.938843 389.190628
       Q 440.104677 381.690568 439.206621 374.224568"
  />
  <path
    style="stroke:black; stroke-width:3; fill:none"
    d="M 488.460140 307.929939
       Q 478.086732 298.340969 464.040983 291.799269
       Q 453.730738 286.696810 441.422441 283.560786
       Q 431.820390 280.982011 421.004428 279.742464"
  />
  <path
    style="stroke:black; stroke-width:3; fill:none"
    d="M 417.958763 383.915918
       Q 418.550592 374.299107 417.438314 364.653650
       Q 416.505764 355.980750 414.196130 347.448081
       Q 412.151918 339.701106 408.989836 332.190884"
  />
  <path
    style="stroke:black; stroke-width:3; fill:none"
    d="M 518.195710 359.962869
       Q 515.969503 347.897313 510.623723 337.185955
       Q 506.416199 328.156591 500.119335 320.319377
       Q 495.002934 313.634386 488.460140 307.929939"
  />
  <path
    style="stroke:black; stroke-width:3; fill:none"
    d="M 407.085158 426.379174
       Q 410.524545 419.231544 412.874720 411.701085
       Q 415.095296 404.739212 416.348889 397.548133
       Q 417.551766 390.886728 417.905586 384.108001"
  />
  <path
    style="stroke:black; stroke-width:3; fill:none"
    d="M 473.134637 341.189613
       Q 466.216392 328.459744 455.314068 318.074700
       Q 447.008280 309.805731 436.392439 303.309430
       Q 427.889544 297.942307 417.946243 293.906740"
  />
  <path
    style="stroke:black; stroke-width:3; fill:none"
    d="M 398.044728 388.444056
       Q 399.804773 379.794971 400.172786 370.903498
       Q 400.553090 362.752693 399.743294 354.536928
       Q 399.027830 346.943377 397.294689 339.406668"
  />
  <path
    style="stroke:black; stroke-width:3; fill:none"
    d="M 486.059314 398.351863
       Q 486.816658 386.658429 484.964998 375.448722
       Q 483.526703 365.691796 480.156470 356.553504
       Q 477.359026 348.559304 473.134637 341.189613"
  />
  <path
    style="stroke:black; stroke-width:3; fill:none"
    d="M 384.008188 424.657485
       Q 387.587875 418.769371 390.383663 412.479443
       Q 393.034171 406.587859 394.962008 400.409515
       Q 396.798845 394.609820 397.976052 388.614298"
  />
  <path
    style="stroke:black; stroke-width:3; fill:none"
    d="M 452.794533 364.175069
       Q 449.282554 350.534291 441.853578 338.327711
       Q 435.987045 328.295198 427.638980 319.615748
       Q 420.760107 312.286815 412.245512 306.119856"
  />
  <path
    style="stroke:black; stroke-width:3; fill:none"
    d="M 379.898008 389.153992
       Q 382.431853 381.478257 383.856852 373.443030
       Q 385.211316 365.960007 385.572352 358.277002
       Q 385.931525 351.067142 385.401755 343.778685"
  />
  <path
    style="stroke:black; stroke-width:3; fill:none"
    d="M 453.073650 417.765247
       Q 455.612579 407.733257 456.155392 397.651204
       Q 456.744750 388.627423 455.723778 379.773213
       Q 454.900237 371.834059 452.794533 364.175069"
  />
  <path
    style="stroke:black; stroke-width:3; fill:none"
    d="M 364.213198 420.066255
       Q 367.765909 415.161713 370.752276 409.875477
       Q 373.598760 404.875693 375.908354 399.578205
       Q 378.116700 394.554819 379.820231 389.303602"
  />
  <path
    style="stroke:black; stroke-width:3; fill:none"
    d="M 431.199680 378.450173
       Q 430.416192 365.228284 426.073806 352.629718
       Q 422.544462 341.941798 416.544722 332.116931
       Q 411.463026 323.613761 404.638359 316.002992"
  />
  <path
    style="stroke:black; stroke-width:3; fill:none"
    d="M 363.544759 387.155949
       Q 366.584383 380.371844 368.756543 373.177132
       Q 370.822847 366.391235 372.081257 359.327505
       Q 373.289585 352.614479 373.746269 345.731668"
  />
  <path
    style="stroke:black; stroke-width:3; fill:none"
    d="M 423.469355 425.510502
       Q 426.859335 417.252250 428.778045 408.690129
       Q 430.596821 400.860108 431.148519 392.930263
       Q 431.710724 385.673415 431.199680 378.450173"
  />
  <path
    style="stroke:black; stroke-width:3; fill:none"
    d="M 347.075802 413.718916
       Q 350.529557 409.574553 353.573096 405.083895
       Q 356.488422 400.805548 359.006460 396.242013
       Q 361.425364 391.881034 363.461942 387.287381"
  />
</svg>