<svg xmlns="http://www.w3.org/2000/svg" width="600" height="600">
  <path
    style="stroke:black; stroke-width:3; fill:stroke:black; stroke-width:3; fill:green"
    d="M 430.290093 400.659529
       Q 420.004619 404.102596 409.109486 405.438124
       Q 399.719565 406.717747 390.046777 406.364512
       Q 381.580417 406.147976 373.014622 404.650417
       Q 365.438301 410.958656 356.880006 415.873788
       Q 348.231632 420.841686 338.843622 424.234768
       Q 329.387926 427.652764 319.474807 429.366581
       Q 321.539451 440.161007 323.999179 449.542627
       Q 327.196490 461.958786 331.009607 472.132187
       Q 336.282323 486.735190 342.588234 497.280278
       Q 369.774311 488.819255 390.328329 471.030555
       Q 408.445456 455.602026 418.796848 435.559744
       Q 427.750192 418.806540 430.290093 400.659529
       z"
  />
  <path
    style="stroke:black; stroke-width:3; fill:stroke:black; stroke-width:3; fill:green"
    d="M 419.600075 288.134242
       Q 422.782660 279.657149 424.560160 270.820862
       Q 426.534601 261.245487 426.817709 251.480709
       Q 427.180807 240.858402 425.537348 230.318267
       Q 433.266643 225.797143 440.153717 221.760868
       Q 448.886510 216.653056 456.388876 212.255080
       Q 466.401224 206.400207 474.457783 201.675242
       Q 489.670405 228.015671 492.738782 257.638502
       Q 495.640311 284.822542 487.943987 309.672423
       Q 481.509207 331.195116 468.245672 347.980973
       Q 462.695393 334.157814 453.455739 321.644623
       Q 446.256372 311.466884 436.735486 302.421198
       Q 428.944232 294.804155 419.600075 288.134242
       z"
  />
  <path
    style="stroke:black; stroke-width:3; fill:stroke:black; stroke-width:3; fill:green"
    d="M 169.709907 400.659529
       Q 179.995381 404.102596 190.890514 405.438124
       Q 200.280435 406.717747 209.953223 406.364512
       Q 218.419583 406.147976 226.985378 404.650417
       Q 234.561699 410.958656 243.119994 415.873788
       Q 251.768368 420.841686 261.156378 424.234768
       Q 270.612074 427.652764 280.525193 429.366581
       Q 278.460549 440.161007 276.000821 449.542627
       Q 272.803510 461.958786 268.990393 472.132187
       Q 263.717677 486.735190 257.411766 497.280278
       Q 230.225689 488.819255 209.671671 471.030555
       Q 191.554544 455.602026 181.203152 435.559744
       Q 172.249808 418.806540 169.709907 400.659529
       z"
  />
  <path
    style="stroke:black; stroke-width:3; fill:stroke:black; stroke-width:3; fill:green"
    d="M 300.000000 545.973246
       Q 300.000000 558.579915 300.000000 552.343813
       Q 300.000000 546.523626 300.000000 495.134355
       Q 300.000000 422.020884 300.000000 301.556049
       Q 404.359689 241.323631 467.624680 204.894709
       Q 512.082567 179.305807 517.027192 176.564449
       Q 522.351528 173.581543 511.336946 180.046459
       Q 539.833655 229.388089 538.499744 282.986449
       Q 537.804848 327.895778 516.878894 362.241500
       Q 501.579958 388.917747 477.474548 404.771681
       Q 475.865887 433.441280 460.463307 459.924252
       Q 441.238157 495.099570 402.717990 518.090542
       Q 356.993419 545.973246 300.000000 545.973246
       z"
  />
  <path
    style="stroke:black; stroke-width:3; fill:stroke:black; stroke-width:3; fill:green"
    d="M 475.382787 373.311052
       Q 468.328503 380.288361 460.243920 385.816736
       Q 453.027137 390.868630 445.114741 394.653372
       Q 438.025079 398.138579 430.474397 400.538720
       Q 427.750192 418.806540 418.796848 435.559744
       Q 408.445456 455.602026 390.328329 471.030555
       Q 369.774311 488.819255 342.588234 497.280278
       Q 346.598988 504.357632 350.967113 509.829444
       Q 356.379112 516.972926 362.247575 521.667299
       Q 369.696595 528.162635 377.674648 530.717231
       Q 423.081146 512.034799 449.322670 476.789610
       Q 470.316999 449.866104 475.617037 418.893384
       Q 480.363530 395.801890 475.742757 373.107006
       z"
  />
  <path
    style="stroke:black; stroke-width:3; fill:stroke:black; stroke-width:3; fill:green"
    d="M 124.617213 373.311052
       Q 131.671497 380.288361 139.756080 385.816736
       Q 146.972863 390.868630 154.885259 394.653372
       Q 161.974921 398.138579 169.525603 400.538720
       Q 172.249808 418.806540 181.203152 435.559744
       Q 191.554544 455.602026 209.671671 471.030555
       Q 230.225689 488.819255 257.411766 497.280278
       Q 253.401012 504.357632 249.032887 509.829444
       Q 243.620888 516.972926 237.752425 521.667299
       Q 230.303405 528.162635 222.325352 530.717231
       Q 176.918854 512.034799 150.677330 476.789610
       Q 129.683001 449.866104 124.382963 418.893384
       Q 119.636470 395.801890 124.257243 373.107006
       z"
  />
  <path
    style="stroke:black; stroke-width:3; fill:stroke:black; stroke-width:3; fill:green"
    d="M 280.745531 429.366581
       Q 287.105391 430.478737 293.550170 430.851296
       Q 300.000000 431.224151 306.449830 430.851296
       Q 312.894609 430.478737 319.254469 429.366581
       Q 321.539451 440.161007 323.999179 449.542627
       Q 327.196490 461.958786 331.009607 472.132187
       Q 336.282323 486.735190 342.588234 497.280278
       Q 328.930040 501.549915 314.540336 503.010334
       Q 300.000000 504.487436 285.459664 503.010334
       Q 271.069960 501.549915 257.411766 497.280278
       Q 263.717677 486.735190 268.990393 472.132187
       Q 272.803510 461.958786 276.000821 449.542627
       Q 278.460549 440.161007 280.525193 429.366581
       z"
  />
  <path
    style="stroke:black; stroke-width:3; fill:stroke:black; stroke-width:3; fill:green"
    d="M 510.853918 180.327963
       Q 506.940385 182.644704 499.690551 186.890930
       Q 494.405886 189.996519 487.086850 194.278591
       Q 481.472970 197.571134 474.538684 201.627092
       Q 489.670405 228.015671 492.738782 257.638502
       Q 495.640311 284.822542 487.943987 309.672423
       Q 481.509207 331.195116 468.245672 347.980973
       Q 471.597153 355.870557 473.705652 364.062954
       Q 476.241471 373.346326 477.157277 382.882377
       Q 478.377795 393.770260 477.474548 404.771681
       Q 501.579958 388.917747 516.878894 362.241500
       Q 537.804848 327.895778 538.499744 282.986449
       Q 539.833655 229.388089 511.336946 180.046459
       z"
  />
  <path
    style="stroke:black; stroke-width:3; fill:stroke:black; stroke-width:3; fill:green"
    d="M 377.674648 530.717231
       Q 369.696595 528.162635 362.247575 521.667299
       Q 356.379112 516.972926 350.967113 509.829444
       Q 346.598988 504.357632 342.588234 497.280278
       Q 328.930040 501.549915 314.540336 503.010334
       Q 300.000000 504.487436 285.459664 503.010334
       Q 271.069960 501.549915 257.411766 497.280278
       Q 253.401012 504.357632 249.032887 509.829444
       Q 243.620888 516.972926 237.752425 521.667299
       Q 230.303405 528.162635 222.325352 530.717231
       Q 246.303528 540.689611 272.846830 544.190815
       Q 300.000000 547.780569 327.153170 544.190815
       Q 353.696472 540.689611 377.674648 530.717231
       z"
  />
  <path
    style="stroke:black; stroke-width:3; fill:stroke:black; stroke-width:3; fill:orange"
    d="M 258.906401 205.976184
       Q 266.323788 206.772112 273.661854 208.522088
       Q 280.592298 210.158379 287.357900 212.630269
       Q 293.794225 214.969444 300.000000 218.041097
       Q 306.205775 214.969444 312.642100 212.630269
       Q 319.407702 210.158379 326.338146 208.522088
       Q 333.676212 206.772112 341.093599 205.976184
       Q 337.871320 196.190813 333.002659 187.465089
       Q 327.444894 177.278307 319.904049 168.798359
       Q 311.110713 158.652618 300.000000 151.279873
       Q 288.889287 158.652618 280.095951 168.798359
       Q 272.555106 177.278307 266.997341 187.465089
       Q 262.128680 196.190813 258.906401 205.976184
       z"
  />
  <path
    style="stroke:black; stroke-width:3; fill:stroke:black; stroke-width:3; fill:orange"
    d="M 227.369293 206.807479
       Q 218.458417 208.248837 209.938966 211.086137
       Q 200.681745 214.120788 192.105552 218.715363
       Q 182.747513 223.667661 174.462652 230.318267
       Q 166.733357 225.797143 159.846283 221.760868
       Q 151.113490 216.653056 143.611124 212.255080
       Q 133.598776 206.400207 125.542217 201.675242
       Q 140.754839 175.334812 164.860616 157.905999
       Q 186.938012 141.839400 212.274000 136.146465
       Q 234.099616 131.020155 255.223682 134.195617
       Q 245.962728 146.017890 239.680326 160.380908
       Q 234.406935 171.799563 231.276282 184.659831
       Q 228.522948 195.300587 227.369293 206.807479
       z"
  />
  <path
    style="stroke:black; stroke-width:3; fill:stroke:black; stroke-width:3; fill:orange"
    d="M 474.457783 201.675242
       Q 466.401224 206.400207 456.388876 212.255080
       Q 448.886510 216.653056 440.153717 221.760868
       Q 433.266643 225.797143 425.537348 230.318267
       Q 417.252487 223.667661 407.894448 218.715363
       Q 399.318255 214.120788 390.061034 211.086137
       Q 381.541583 208.248837 372.630707 206.807479
       Q 371.477052 195.300587 368.723718 184.659831
       Q 365.593065 171.799563 360.319674 160.380908
       Q 354.037272 146.017890 344.776318 134.195617
       Q 365.900384 131.020155 387.726000 136.146465
       Q 413.061988 141.839400 435.139384 157.905999
       Q 459.245161 175.334812 474.457783 201.675242
       z"
  />
  <path
    style="stroke:black; stroke-width:3; fill:stroke:black; stroke-width:3; fill:orange"
    d="M 511.336946 180.046459
       Q 522.351528 173.581543 517.027192 176.564449
       Q 512.082567 179.305807 467.624680 204.894709
       Q 404.359689 241.323631 300.000000 301.556049
       Q 195.640311 241.323631 132.375320 204.894709
       Q 87.917433 179.305807 82.972808 176.564449
       Q 77.648472 173.581543 88.663054 180.046459
       Q 117.159764 130.704830 164.218246 105.131773
       Q 203.433309 83.344004 243.584413 84.401665
       Q 274.285929 84.408574 300.000000 97.477134
       Q 325.714071 84.408574 356.415587 84.401665
       Q 396.566691 83.344004 435.781754 105.131773
       Q 482.840236 130.704830 511.336946 180.046459
       z"
  />
  <path
    style="stroke:black; stroke-width:3; fill:stroke:black; stroke-width:3; fill:orange"
    d="M 227.574047 206.803401
       Q 232.906216 205.911483 238.333080 205.547516
       Q 243.511578 205.187818 248.738177 205.314117
       Q 253.739434 205.424442 258.750672 205.981371
       Q 262.128680 196.190813 266.997341 187.465089
       Q 272.555106 177.278307 280.095951 168.798359
       Q 288.889287 158.652618 300.000000 151.279873
       Q 293.973358 147.183209 287.381982 144.000637
       Q 280.211833 140.470732 272.496055 138.090182
       Q 264.095097 135.428386 255.223682 134.195617
       Q 245.962728 146.017890 239.680326 160.380908
       Q 234.406935 171.799563 231.276282 184.659831
       Q 228.522948 195.300587 227.369293 206.807479
       z"
  />
  <path
    style="stroke:black; stroke-width:3; fill:stroke:black; stroke-width:3; fill:orange"
    d="M 510.853918 180.327963
       Q 506.940385 182.644704 499.690551 186.890930
       Q 494.405886 189.996519 487.086850 194.278591
       Q 481.472970 197.571134 474.538684 201.627092
       Q 459.245161 175.334812 435.139384 157.905999
       Q 413.061988 141.839400 387.726000 136.146465
       Q 365.900384 131.020155 344.776318 134.195617
       Q 339.585441 127.294235 333.511543 121.318934
       Q 326.704292 114.424919 318.869458 108.809367
       Q 310.013848 102.250583 300.000000 97.477134
       Q 325.714071 84.408574 356.415587 84.401665
       Q 396.566691 83.344004 435.781754 105.131773
       Q 482.840236 130.704830 511.336946 180.046459
       z"
  />
  <path
    style="stroke:black; stroke-width:3; fill:stroke:black; stroke-width:3; fill:orange"
    d="M 372.425953 206.803401
       Q 367.093784 205.911483 361.666920 205.547516
       Q 356.488422 205.187818 351.261823 205.314117
       Q 346.260566 205.424442 341.249328 205.981371
       Q 337.871320 196.190813 333.002659 187.465089
       Q 327.444894 177.278307 319.904049 168.798359
       Q 311.110713 158.652618 300.000000 151.279873
       Q 306.026642 147.183209 312.618018 144.000637
       Q 319.788167 140.470732 327.503945 138.090182
       Q 335.904903 135.428386 344.776318 134.195617
       Q 354.037272 146.017890 360.319674 160.380908
       Q 365.593065 171.799563 368.723718 184.659831
       Q 371.477052 195.300587 372.630707 206.807479
       z"
  />
  <path
    style="stroke:black; stroke-width:3; fill:stroke:black; stroke-width:3; fill:orange"
    d="M 89.146082 180.327963
       Q 93.059615 182.644704 100.309449 186.890930
       Q 105.594114 189.996519 112.913150 194.278591
       Q 118.527030 197.571134 125.461316 201.627092
       Q 140.754839 175.334812 164.860616 157.905999
       Q 186.938012 141.839400 212.274000 136.146465
       Q 234.099616 131.020155 255.223682 134.195617
       Q 260.414559 127.294235 266.488457 121.318934
       Q 273.295708 114.424919 281.130542 108.809367
       Q 289.986152 102.250583 300.000000 97.477134
       Q 274.285929 84.408574 243.584413 84.401665
       Q 203.433309 83.344004 164.218246 105.131773
       Q 117.159764 130.704830 88.663054 180.046459
       z"
  />
  <path
    style="stroke:black; stroke-width:3; fill:stroke:black; stroke-width:3; fill:orange"
    d="M 255.223682 134.195617
       Q 264.095097 135.428386 272.496055 138.090182
       Q 280.211833 140.470732 287.381982 144.000637
       Q 293.973358 147.183209 300.000000 151.279873
       Q 306.026642 147.183209 312.618018 144.000637
       Q 319.788167 140.470732 327.503945 138.090182
       Q 335.904903 135.428386 344.776318 134.195617
       Q 339.585441 127.294235 333.511543 121.318934
       Q 326.704292 114.424919 318.869458 108.809367
       Q 310.013848 102.250583 300.000000 97.477134
       Q 289.986152 102.250583 281.130542 108.809367
       Q 273.295708 114.424919 266.488457 121.318934
       Q 260.414559 127.294235 255.223682 134.195617
       z"
  />
  <path
    style="stroke:black; stroke-width:3; fill:stroke:black; stroke-width:3; fill:purple"
    d="M 243.157991 342.609606
       Q 245.436852 337.475889 248.041064 332.330073
       Q 250.514025 327.433437 253.272439 322.552223
       Q 255.921974 317.858169 258.823604 313.204817
       Q 256.359930 308.228512 254.206926 303.142445
       Q 252.014206 297.964796 250.157595 292.711063
       Q 248.248795 287.315623 246.705663 281.879329
       Q 239.325512 284.578055 232.480837 287.992552
       Q 225.090793 291.663124 218.435133 296.093465
       Q 211.104495 300.941865 204.773869 306.602944
       Q 209.761350 314.433534 216.140313 321.333736
       Q 222.087811 327.796989 229.103804 333.266958
       Q 235.729909 338.449351 243.157991 342.609606
       z"
  />
  <path
    style="stroke:black; stroke-width:3; fill:stroke:black; stroke-width:3; fill:purple"
    d="M 234.867980 364.372046
       Q 232.878645 370.612804 231.399892 376.730003
       Q 229.733754 383.500497 228.682756 390.087233
       Q 227.454838 397.503039 226.985378 404.650417
       Q 218.419583 406.147976 209.953223 406.364512
       Q 200.280435 406.717747 190.890514 405.438124
       Q 179.995381 404.102596 169.709907 400.659529
       Q 167.349416 385.601865 169.617420 370.689849
       Q 171.324550 358.194583 176.244030 346.424613
       Q 180.298722 336.385974 186.590747 327.231261
       Q 193.479873 335.529350 201.758942 342.733473
       Q 209.356693 349.395007 217.989969 354.971018
       Q 226.048264 360.204287 234.867980 364.372046
       z"
  />
  <path
    style="stroke:black; stroke-width:3; fill:stroke:black; stroke-width:3; fill:purple"
    d="M 125.542217 201.675242
       Q 133.598776 206.400207 143.611124 212.255080
       Q 151.113490 216.653056 159.846283 221.760868
       Q 166.733357 225.797143 174.462652 230.318267
       Q 172.819193 240.858402 173.182291 251.480709
       Q 173.465399 261.245487 175.439840 270.820862
       Q 177.217340 279.657149 180.399925 288.134242
       Q 171.055768 294.804155 163.264514 302.421198
       Q 153.743628 311.466884 146.544261 321.644623
       Q 137.304607 334.157814 131.754328 347.980973
       Q 118.490793 331.195116 112.056013 309.672423
       Q 104.359689 284.822542 107.261218 257.638502
       Q 110.329595 228.015671 125.542217 201.675242
       z"
  />
  <path
    style="stroke:black; stroke-width:3; fill:stroke:black; stroke-width:3; fill:purple"
    d="M 88.663054 180.046459
       Q 77.648472 173.581543 82.972808 176.564449
       Q 87.917433 179.305807 132.375320 204.894709
       Q 195.640311 241.323631 300.000000 301.556049
       Q 300.000000 422.020884 300.000000 495.134355
       Q 300.000000 546.523626 300.000000 552.343813
       Q 300.000000 558.579915 300.000000 545.973246
       Q 243.006581 545.973246 197.282010 518.090542
       Q 158.761843 495.099570 139.536693 459.924252
       Q 124.134113 433.441280 122.525452 404.771681
       Q 98.420042 388.917747 83.121106 362.241500
       Q 62.195152 327.895778 61.500256 282.986449
       Q 60.166345 229.388089 88.663054 180.046459
       z"
  />
  <path
    style="stroke:black; stroke-width:3; fill:stroke:black; stroke-width:3; fill:purple"
    d="M 234.922611 364.230171
       Q 236.091017 360.523462 237.447287 356.776717
       Q 238.732430 353.210649 240.187433 349.615700
       Q 241.575341 346.175694 243.117705 342.716620
       Q 235.729909 338.449351 229.103804 333.266958
       Q 222.087811 327.796989 216.140313 321.333736
       Q 209.761350 314.433534 204.773869 306.602944
       Q 201.462443 309.543430 198.442151 312.681230
       Q 195.226648 316.002992 192.351293 319.527467
       Q 189.271439 323.276149 186.590747 327.231261
       Q 193.479873 335.529350 201.758942 342.733473
       Q 209.356693 349.395007 217.989969 354.971018
       Q 226.048264 360.204287 234.867980 364.372046
       z"
  />
  <path
    style="stroke:black; stroke-width:3; fill:stroke:black; stroke-width:3; fill:purple"
    d="M 89.146082 180.327963
       Q 93.059615 182.644704 100.309449 186.890930
       Q 105.594114 189.996519 112.913150 194.278591
       Q 118.527030 197.571134 125.461316 201.627092
       Q 110.329595 228.015671 107.261218 257.638502
       Q 104.359689 284.822542 112.056013 309.672423
       Q 118.490793 331.195116 131.754328 347.980973
       Q 128.402847 355.870557 126.294348 364.062954
       Q 123.758529 373.346326 122.842723 382.882377
       Q 121.622205 393.770260 122.525452 404.771681
       Q 98.420042 388.917747 83.121106 362.241500
       Q 62.195152 327.895778 61.500256 282.986449
       Q 60.166345 229.388089 88.663054 180.046459
       z"
  />
  <path
    style="stroke:black; stroke-width:3; fill:stroke:black; stroke-width:3; fill:purple"
    d="M 241.940933 259.673026
       Q 242.483352 263.441440 243.214099 267.231520
       Q 243.919793 270.906488 244.801871 274.590892
       Q 245.658543 278.178027 246.681028 281.763396
       Q 239.325512 284.578055 232.480837 287.992552
       Q 225.090793 291.663124 218.435133 296.093465
       Q 211.104495 300.941865 204.773869 306.602944
       Q 202.230716 302.630570 200.074463 298.462399
       Q 197.822953 294.128601 196.006400 289.617774
       Q 194.102852 284.917403 192.686704 280.065314
       Q 200.632077 275.285058 209.437934 271.232617
       Q 217.322221 267.559675 225.835791 264.536176
       Q 233.643868 261.737927 241.911062 259.535098
       z"
  />
  <path
    style="stroke:black; stroke-width:3; fill:stroke:black; stroke-width:3; fill:purple"
    d="M 124.617213 373.311052
       Q 131.671497 380.288361 139.756080 385.816736
       Q 146.972863 390.868630 154.885259 394.653372
       Q 161.974921 398.138579 169.525603 400.538720
       Q 167.349416 385.601865 169.617420 370.689849
       Q 171.324550 358.194583 176.244030 346.424613
       Q 180.298722 336.385974 186.590747 327.231261
       Q 183.024674 322.969232 179.856844 318.457446
       Q 176.511358 313.721811 173.624650 308.742773
       Q 170.561072 303.498332 168.026509 298.022219
       Q 158.528607 306.317606 151.094741 315.690344
       Q 141.696886 327.098512 135.520756 339.776075
       Q 127.205957 355.791145 124.257243 373.107006
       z"
  />
  <path
    style="stroke:black; stroke-width:3; fill:stroke:black; stroke-width:3; fill:purple"
    d="M 186.590747 327.231261
       Q 189.271439 323.276149 192.351293 319.527467
       Q 195.226648 316.002992 198.442151 312.681230
       Q 201.462443 309.543430 204.773869 306.602944
       Q 202.230716 302.630570 200.074463 298.462399
       Q 197.822953 294.128601 196.006400 289.617774
       Q 194.102852 284.917403 192.686704 280.065314
       Q 188.472165 282.570843 184.510310 285.262778
       Q 180.245630 288.134242 176.279140 291.206722
       Q 171.975282 294.505448 168.026509 298.022219
       Q 170.561072 303.498332 173.624650 308.742773
       Q 176.511358 313.721811 179.856844 318.457446
       Q 183.024674 322.969232 186.590747 327.231261
       z"
  />
  <path
    style="stroke:black; stroke-width:3; fill:stroke:black; stroke-width:3; fill:red"
    d="M 353.294337 281.879329
       Q 351.751205 287.315623 349.842405 292.711063
       Q 347.985794 297.964796 345.793074 303.142445
       Q 343.640070 308.228512 341.176396 313.204817
       Q 335.967437 313.566361 330.659085 313.836359
       Q 325.500421 314.099504 320.272685 314.273887
       Q 315.141768 314.445362 309.970363 314.529809
       Q 309.900776 307.648581 309.917589 300.739224
       Q 309.934466 293.806357 310.038313 286.913274
       Q 310.144635 279.874002 310.341526 272.944566
       Q 317.571927 273.410330 324.670728 274.520675
       Q 331.956516 275.659024 338.994994 277.456241
       Q 346.333864 279.326637 353.294337 281.879329
       z"
  />
  <path
    style="stroke:black; stroke-width:3; fill:stroke:black; stroke-width:3; fill:red"
    d="M 300.000000 252.020019
       Q 300.000000 246.463200 300.000000 241.064698
       Q 300.000000 235.317567 300.000000 229.769356
       Q 300.000000 223.781669 300.000000 218.041097
       Q 293.794225 214.969444 287.357900 212.630269
       Q 280.592298 210.158379 273.661854 208.522088
       Q 266.323788 206.772112 258.906401 205.976184
       Q 256.017653 214.558027 254.497707 223.795092
       Q 253.098234 232.076065 252.851972 240.746139
       Q 252.605189 248.677582 253.346264 256.811412
       Q 261.058890 255.190082 269.014250 254.109375
       Q 276.707877 253.060832 284.541965 252.536547
       Q 292.247980 252.020019 300.000000 252.020019
       z"
  />
  <path
    style="stroke:black; stroke-width:3; fill:stroke:black; stroke-width:3; fill:red"
    d="M 246.705663 281.879329
       Q 248.248795 287.315623 250.157595 292.711063
       Q 252.014206 297.964796 254.206926 303.142445
       Q 256.359930 308.228512 258.823604 313.204817
       Q 264.032563 313.566361 269.340915 313.836359
       Q 274.499579 314.099504 279.727315 314.273887
       Q 284.858232 314.445362 290.029637 314.529809
       Q 290.099224 307.648581 290.082411 300.739224
       Q 290.065534 293.806357 289.961687 286.913274
       Q 289.855365 279.874002 289.658474 272.944566
       Q 282.428073 273.410330 275.329272 274.520675
       Q 268.043484 275.659024 261.005006 277.456241
       Q 253.666136 279.326637 246.705663 281.879329
       z"
  />
  <path
    style="stroke:black; stroke-width:3; fill:stroke:black; stroke-width:3; fill:red"
    d="M 180.399925 288.134242
       Q 177.217340 279.657149 175.439840 270.820862
       Q 173.465399 261.245487 173.182291 251.480709
       Q 172.819193 240.858402 174.462652 230.318267
       Q 182.747513 223.667661 192.105552 218.715363
       Q 200.681745 214.120788 209.938966 211.086137
       Q 218.458417 208.248837 227.369293 206.807479
       Q 226.282802 216.659002 226.441805 227.044809
       Q 226.521110 236.199831 227.607881 245.677821
       Q 228.552989 254.245887 230.339370 262.988882
       Q 221.899252 265.766734 214.036254 269.176892
       Q 205.315752 272.916594 197.383198 277.359357
       Q 188.346904 282.344449 180.399925 288.134242
       z"
  />
  <path
    style="stroke:black; stroke-width:3; fill:stroke:black; stroke-width:3; fill:red"
    d="M 358.059067 259.673026
       Q 357.516648 263.441440 356.785901 267.231520
       Q 356.080207 270.906488 355.198129 274.590892
       Q 354.341457 278.178027 353.318972 281.763396
       Q 346.333864 279.326637 338.994994 277.456241
       Q 331.956516 275.659024 324.670728 274.520675
       Q 317.571927 273.410330 310.341526 272.944566
       Q 310.439079 269.522628 310.558693 266.138799
       Q 310.681436 262.675283 310.827248 259.258709
       Q 310.977615 255.745468 311.152314 252.288589
       Q 318.959776 252.664843 326.653598 253.562393
       Q 334.571062 254.483485 342.275396 255.939687
       Q 350.344784 257.457968 358.088938 259.535098
       z"
  />
  <path
    style="stroke:black; stroke-width:3; fill:stroke:black; stroke-width:3; fill:red"
    d="M 241.940933 259.673026
       Q 242.483352 263.441440 243.214099 267.231520
       Q 243.919793 270.906488 244.801871 274.590892
       Q 245.658543 278.178027 246.681028 281.763396
       Q 253.666136 279.326637 261.005006 277.456241
       Q 268.043484 275.659024 275.329272 274.520675
       Q 282.428073 273.410330 289.658474 272.944566
       Q 289.560921 269.522628 289.441307 266.138799
       Q 289.318564 262.675283 289.172752 259.258709
       Q 289.022385 255.745468 288.847686 252.288589
       Q 281.040224 252.664843 273.346402 253.562393
       Q 265.428938 254.483485 257.724604 255.939687
       Q 249.655216 257.457968 241.911062 259.535098
       z"
  />
  <path
    style="stroke:black; stroke-width:3; fill:stroke:black; stroke-width:3; fill:red"
    d="M 290.142442 314.529809
       Q 293.425556 314.584075 296.716006 314.602160
       Q 300.000000 314.620214 303.283994 314.602160
       Q 306.574444 314.584075 309.857558 314.529809
       Q 309.900776 307.648581 309.917589 300.739224
       Q 309.934466 293.806357 310.038313 286.913274
       Q 310.144635 279.874002 310.341526 272.944566
       Q 306.900253 272.722817 303.447153 272.648891
       Q 300.000000 272.575087 296.552847 272.648891
       Q 293.099747 272.722817 289.658474 272.944566
       Q 289.855365 279.874002 289.961687 286.913274
       Q 290.065534 293.806357 290.082411 300.739224
       Q 290.099224 307.648581 290.029637 314.529809
       z"
  />
  <path
    style="stroke:black; stroke-width:3; fill:stroke:black; stroke-width:3; fill:red"
    d="M 227.574047 206.803401
       Q 232.906216 205.911483 238.333080 205.547516
       Q 243.511578 205.187818 248.738177 205.314117
       Q 253.739434 205.424442 258.750672 205.981371
       Q 256.017653 214.558027 254.497707 223.795092
       Q 253.098234 232.076065 252.851972 240.746139
       Q 252.605189 248.677582 253.346264 256.811412
       Q 249.503669 257.616180 245.736689 258.550248
       Q 241.858604 259.509067 238.070252 260.600849
       Q 234.152148 261.726158 230.339370 262.988882
       Q 228.552989 254.245887 227.607881 245.677821
       Q 226.521110 236.199831 226.441805 227.044809
       Q 226.282802 216.659002 227.369293 206.807479
       z"
  />
  <path
    style="stroke:black; stroke-width:3; fill:stroke:black; stroke-width:3; fill:red"
    d="M 311.152314 252.288589
       Q 310.977615 255.745468 310.827248 259.258709
       Q 310.681436 262.675283 310.558693 266.138799
       Q 310.439079 269.522628 310.341526 272.944566
       Q 306.900253 272.722817 303.447153 272.648891
       Q 300.000000 272.575087 296.552847 272.648891
       Q 293.099747 272.722817 289.658474 272.944566
       Q 289.560921 269.522628 289.441307 266.138799
       Q 289.318564 262.675283 289.172752 259.258709
       Q 289.022385 255.745468 288.847686 252.288589
       Q 292.560658 252.109505 296.283851 252.049810
       Q 300.000000 251.990216 303.716149 252.049810
       Q 307.439342 252.109505 311.152314 252.288589
       z"
  />
  <path
    style="stroke:black; stroke-width:3; fill:stroke:black; stroke-width:3; fill:blue"
    d="M 309.970363 314.529809
       Q 315.141768 314.445362 320.272685 314.273887
       Q 325.500421 314.099504 330.659085 313.836359
       Q 335.967437 313.566361 341.176396 313.204817
       Q 344.078026 317.858169 346.727561 322.552223
       Q 349.485975 327.433437 351.958936 332.330073
       Q 354.563148 337.475889 356.842009 342.609606
       Q 349.738222 346.596928 342.057268 349.550669
       Q 334.621093 352.414426 326.803522 354.241262
       Q 319.143568 356.032804 311.279436 356.787147
       Q 310.900436 349.735702 310.625580 342.434151
       Q 310.365841 335.497233 310.200543 328.390761
       Q 310.041060 321.508717 309.970363 314.529809
       z"
  />
  <path
    style="stroke:black; stroke-width:3; fill:stroke:black; stroke-width:3; fill:blue"
    d="M 290.029637 314.529809
       Q 284.858232 314.445362 279.727315 314.273887
       Q 274.499579 314.099504 269.340915 313.836359
       Q 264.032563 313.566361 258.823604 313.204817
       Q 255.921974 317.858169 253.272439 322.552223
       Q 250.514025 327.433437 248.041064 332.330073
       Q 245.436852 337.475889 243.157991 342.609606
       Q 250.261778 346.596928 257.942732 349.550669
       Q 265.378907 352.414426 273.196478 354.241262
       Q 280.856432 356.032804 288.720564 356.787147
       Q 289.099564 349.735702 289.374420 342.434151
       Q 289.634159 335.497233 289.799457 328.390761
       Q 289.958940 321.508717 290.029637 314.529809
       z"
  />
  <path
    style="stroke:black; stroke-width:3; fill:stroke:black; stroke-width:3; fill:blue"
    d="M 319.474807 429.366581
       Q 329.387926 427.652764 338.843622 424.234768
       Q 348.231632 420.841686 356.880006 415.873788
       Q 365.438301 410.958656 373.014622 404.650417
       Q 372.545162 397.503039 371.317244 390.087233
       Q 370.266246 383.500497 368.600108 376.730003
       Q 367.121355 370.612804 365.132020 364.372046
       Q 356.768341 368.339864 347.864065 371.262915
       Q 339.292986 374.084148 330.367711 375.877459
       Q 321.652571 377.631394 312.748727 378.368522
       Q 313.432895 386.548069 314.273824 394.204628
       Q 315.243273 402.993305 316.413715 411.079777
       Q 317.807879 420.708129 319.474807 429.366581
       z"
  />
  <path
    style="stroke:black; stroke-width:3; fill:stroke:black; stroke-width:3; fill:blue"
    d="M 280.525193 429.366581
       Q 270.612074 427.652764 261.156378 424.234768
       Q 251.768368 420.841686 243.119994 415.873788
       Q 234.561699 410.958656 226.985378 404.650417
       Q 227.454838 397.503039 228.682756 390.087233
       Q 229.733754 383.500497 231.399892 376.730003
       Q 232.878645 370.612804 234.867980 364.372046
       Q 243.231659 368.339864 252.135935 371.262915
       Q 260.707014 374.084148 269.632289 375.877459
       Q 278.347429 377.631394 287.251273 378.368522
       Q 286.567105 386.548069 285.726176 394.204628
       Q 284.756727 402.993305 283.586285 411.079777
       Q 282.192121 420.708129 280.525193 429.366581
       z"
  />
  <path
    style="stroke:black; stroke-width:3; fill:stroke:black; stroke-width:3; fill:blue"
    d="M 290.142442 314.529809
       Q 293.425556 314.584075 296.716006 314.602160
       Q 300.000000 314.620214 303.283994 314.602160
       Q 306.574444 314.584075 309.857558 314.529809
       Q 310.041060 321.508717 310.200543 328.390761
       Q 310.365841 335.497233 310.625580 342.434151
       Q 310.900436 349.735702 311.279436 356.787147
       Q 307.530177 357.146876 303.762528 357.266885
       Q 300.000000 357.386738 296.237472 357.266885
       Q 292.469823 357.146876 288.720564 356.787147
       Q 289.099564 349.735702 289.374420 342.434151
       Q 289.634159 335.497233 289.799457 328.390761
       Q 289.958940 321.508717 290.029637 314.529809
       z"
  />
  <path
    style="stroke:black; stroke-width:3; fill:stroke:black; stroke-width:3; fill:blue"
    d="M 280.745531 429.366581
       Q 287.105391 430.478737 293.550170 430.851296
       Q 300.000000 431.224151 306.449830 430.851296
       Q 312.894609 430.478737 319.254469 429.366581
       Q 317.807879 420.708129 316.413715 411.079777
       Q 315.243273 402.993305 314.273824 394.204628
       Q 313.432895 386.548069 312.748727 378.368522
       Q 308.508216 378.719757 304.250739 378.836892
       Q 300.000000 378.953853 295.749261 378.836892
       Q 291.491784 378.719757 287.251273 378.368522
       Q 286.567105 386.548069 285.726176 394.204628
       Q 284.756727 402.993305 283.586285 411.079777
       Q 282.192121 420.708129 280.525193 429.366581
       z"
  />
  <path
    style="stroke:black; stroke-width:3; fill:stroke:black; stroke-width:3; fill:blue"
    d="M 365.077389 364.230171
       Q 363.908983 360.523462 362.552713 356.776717
       Q 361.267570 353.210649 359.812567 349.615700
       Q 358.424659 346.175694 356.882295 342.716620
       Q 349.738222 346.596928 342.057268 349.550669
       Q 334.621093 352.414426 326.803522 354.241262
       Q 319.143568 356.032804 311.279436 356.787147
       Q 311.472034 360.353813 311.691148 363.847055
       Q 311.919908 367.482641 312.177247 371.033370
       Q 312.447432 374.749747 312.748727 378.368522
       Q 321.652571 377.631394 330.367711 375.877459
       Q 339.292986 374.084148 347.864065 371.262915
       Q 356.768341 368.339864 365.132020 364.372046
       z"
  />
  <path
    style="stroke:black; stroke-width:3; fill:stroke:black; stroke-width:3; fill:blue"
    d="M 234.922611 364.230171
       Q 236.091017 360.523462 237.447287 356.776717
       Q 238.732430 353.210649 240.187433 349.615700
       Q 241.575341 346.175694 243.117705 342.716620
       Q 250.261778 346.596928 257.942732 349.550669
       Q 265.378907 352.414426 273.196478 354.241262
       Q 280.856432 356.032804 288.720564 356.787147
       Q 288.527966 360.353813 288.308852 363.847055
       Q 288.080092 367.482641 287.822753 371.033370
       Q 287.552568 374.749747 287.251273 378.368522
       Q 278.347429 377.631394 269.632289 375.877459
       Q 260.707014 374.084148 252.135935 371.262915
       Q 243.231659 368.339864 234.867980 364.372046
       z"
  />
  <path
    style="stroke:black; stroke-width:3; fill:stroke:black; stroke-width:3; fill:blue"
    d="M 288.720564 356.787147
       Q 292.469823 357.146876 296.237472 357.266885
       Q 300.000000 357.386738 303.762528 357.266885
       Q 307.530177 357.146876 311.279436 356.787147
       Q 311.472034 360.353813 311.691148 363.847055
       Q 311.919908 367.482641 312.177247 371.033370
       Q 312.447432 374.749747 312.748727 378.368522
       Q 308.508216 378.719757 304.250739 378.836892
       Q 300.000000 378.953853 295.749261 378.836892
       Q 291.491784 378.719757 287.251273 378.368522
       Q 287.552568 374.749747 287.822753 371.033370
       Q 288.080092 367.482641 288.308852 363.847055
       Q 288.527966 360.353813 288.720564 356.787147
       z"
  />
  <path
    style="stroke:black; stroke-width:3; fill:stroke:black; stroke-width:3; fill:yellow"
    d="M 356.842009 342.609606
       Q 354.563148 337.475889 351.958936 332.330073
       Q 349.485975 327.433437 346.727561 322.552223
       Q 344.078026 317.858169 341.176396 313.204817
       Q 343.640070 308.228512 345.793074 303.142445
       Q 347.985794 297.964796 349.842405 292.711063
       Q 351.751205 287.315623 353.294337 281.879329
       Q 360.674488 284.578055 367.519163 287.992552
       Q 374.909207 291.663124 381.564867 296.093465
       Q 388.895505 300.941865 395.226131 306.602944
       Q 390.238650 314.433534 383.859687 321.333736
       Q 377.912189 327.796989 370.896196 333.266958
       Q 364.270091 338.449351 356.842009 342.609606
       z"
  />
  <path
    style="stroke:black; stroke-width:3; fill:stroke:black; stroke-width:3; fill:yellow"
    d="M 365.132020 364.372046
       Q 367.121355 370.612804 368.600108 376.730003
       Q 370.266246 383.500497 371.317244 390.087233
       Q 372.545162 397.503039 373.014622 404.650417
       Q 381.580417 406.147976 390.046777 406.364512
       Q 399.719565 406.717747 409.109486 405.438124
       Q 420.004619 404.102596 430.290093 400.659529
       Q 432.650584 385.601865 430.382580 370.689849
       Q 428.675450 358.194583 423.755970 346.424613
       Q 419.701278 336.385974 413.409253 327.231261
       Q 406.520127 335.529350 398.241058 342.733473
       Q 390.643307 349.395007 382.010031 354.971018
       Q 373.951736 360.204287 365.132020 364.372046
       z"
  />
  <path
    style="stroke:black; stroke-width:3; fill:stroke:black; stroke-width:3; fill:yellow"
    d="M 341.093599 205.976184
       Q 333.676212 206.772112 326.338146 208.522088
       Q 319.407702 210.158379 312.642100 212.630269
       Q 306.205775 214.969444 300.000000 218.041097
       Q 300.000000 223.781669 300.000000 229.769356
       Q 300.000000 235.317567 300.000000 241.064698
       Q 300.000000 246.463200 300.000000 252.020019
       Q 307.752020 252.020019 315.458035 252.536547
       Q 323.292123 253.060832 330.985750 254.109375
       Q 338.941110 255.190082 346.653736 256.811412
       Q 347.394811 248.677582 347.148028 240.746139
       Q 346.901766 232.076065 345.502293 223.795092
       Q 343.982347 214.558027 341.093599 205.976184
       z"
  />
  <path
    style="stroke:black; stroke-width:3; fill:stroke:black; stroke-width:3; fill:yellow"
    d="M 372.630707 206.807479
       Q 381.541583 208.248837 390.061034 211.086137
       Q 399.318255 214.120788 407.894448 218.715363
       Q 417.252487 223.667661 425.537348 230.318267
       Q 427.180807 240.858402 426.817709 251.480709
       Q 426.534601 261.245487 424.560160 270.820862
       Q 422.782660 279.657149 419.600075 288.134242
       Q 411.653096 282.344449 402.616802 277.359357
       Q 394.684248 272.916594 385.963746 269.176892
       Q 378.100748 265.766734 369.660630 262.988882
       Q 371.447011 254.245887 372.392119 245.677821
       Q 373.478890 236.199831 373.558195 227.044809
       Q 373.717198 216.659002 372.630707 206.807479
       z"
  />
  <path
    style="stroke:black; stroke-width:3; fill:stroke:black; stroke-width:3; fill:yellow"
    d="M 365.077389 364.230171
       Q 363.908983 360.523462 362.552713 356.776717
       Q 361.267570 353.210649 359.812567 349.615700
       Q 358.424659 346.175694 356.882295 342.716620
       Q 364.270091 338.449351 370.896196 333.266958
       Q 377.912189 327.796989 383.859687 321.333736
       Q 390.238650 314.433534 395.226131 306.602944
       Q 398.537557 309.543430 401.557849 312.681230
       Q 404.773352 316.002992 407.648707 319.527467
       Q 410.728561 323.276149 413.409253 327.231261
       Q 406.520127 335.529350 398.241058 342.733473
       Q 390.643307 349.395007 382.010031 354.971018
       Q 373.951736 360.204287 365.132020 364.372046
       z"
  />
  <path
    style="stroke:black; stroke-width:3; fill:stroke:black; stroke-width:3; fill:yellow"
    d="M 372.425953 206.803401
       Q 367.093784 205.911483 361.666920 205.547516
       Q 356.488422 205.187818 351.261823 205.314117
       Q 346.260566 205.424442 341.249328 205.981371
       Q 343.982347 214.558027 345.502293 223.795092
       Q 346.901766 232.076065 347.148028 240.746139
       Q 347.394811 248.677582 346.653736 256.811412
       Q 350.496331 257.616180 354.263311 258.550248
       Q 358.141396 259.509067 361.929748 260.600849
       Q 365.847852 261.726158 369.660630 262.988882
       Q 371.447011 254.245887 372.392119 245.677821
       Q 373.478890 236.199831 373.558195 227.044809
       Q 373.717198 216.659002 372.630707 206.807479
       z"
  />
  <path
    style="stroke:black; stroke-width:3; fill:stroke:black; stroke-width:3; fill:yellow"
    d="M 358.059067 259.673026
       Q 357.516648 263.441440 356.785901 267.231520
       Q 356.080207 270.906488 355.198129 274.590892
       Q 354.341457 278.178027 353.318972 281.763396
       Q 360.674488 284.578055 367.519163 287.992552
       Q 374.909207 291.663124 381.564867 296.093465
       Q 388.895505 300.941865 395.226131 306.602944
       Q 397.769284 302.630570 399.925537 298.462399
       Q 402.177047 294.128601 403.993600 289.617774
       Q 405.897148 284.917403 407.313296 280.065314
       Q 399.367923 275.285058 390.562066 271.232617
       Q 382.677779 267.559675 374.164209 264.536176
       Q 366.356132 261.737927 358.088938 259.535098
       z"
  />
  <path
    style="stroke:black; stroke-width:3; fill:stroke:black; stroke-width:3; fill:yellow"
    d="M 475.382787 373.311052
       Q 468.328503 380.288361 460.243920 385.816736
       Q 453.027137 390.868630 445.114741 394.653372
       Q 438.025079 398.138579 430.474397 400.538720
       Q 432.650584 385.601865 430.382580 370.689849
       Q 428.675450 358.194583 423.755970 346.424613
       Q 419.701278 336.385974 413.409253 327.231261
       Q 416.975326 322.969232 420.143156 318.457446
       Q 423.488642 313.721811 426.375350 308.742773
       Q 429.438928 303.498332 431.973491 298.022219
       Q 441.471393 306.317606 448.905259 315.690344
       Q 458.303114 327.098512 464.479244 339.776075
       Q 472.794043 355.791145 475.742757 373.107006
       z"
  />
  <path
    style="stroke:black; stroke-width:3; fill:stroke:black; stroke-width:3; fill:yellow"
    d="M 413.409253 327.231261
       Q 410.728561 323.276149 407.648707 319.527467
       Q 404.773352 316.002992 401.557849 312.681230
       Q 398.537557 309.543430 395.226131 306.602944
       Q 397.769284 302.630570 399.925537 298.462399
       Q 402.177047 294.128601 403.993600 289.617774
       Q 405.897148 284.917403 407.313296 280.065314
       Q 411.527835 282.570843 415.489690 285.262778
       Q 419.754370 288.134242 423.720860 291.206722
       Q 428.024718 294.505448 431.973491 298.022219
       Q 429.438928 303.498332 426.375350 308.742773
       Q 423.488642 313.721811 420.143156 318.457446
       Q 416.975326 322.969232 413.409253 327.231261
       z"
  />
</svg>