<svg xmlns="http://www.w3.org/2000/svg" width="600" height="600">
  <path
    style="stroke:black; stroke-width:3; fill:stroke:black; stroke-width:3; fill:green"
    d="M 404.638359 316.002992
       Q 400.260594 322.061983 395.094689 327.573023
       Q 390.230549 332.787088 384.723357 337.437896
       Q 379.495360 341.869272 373.746269 345.731668
       Q 373.289585 352.614479 372.081257 359.327505
       Q 370.822847 366.391235 368.756543 373.177132
       Q 366.584383 380.371844 363.544759 387.155949
       Q 373.591706 389.187389 383.542063 389.260545
       Q 395.099568 389.462226 406.169757 387.093284
       Q 419.305479 384.466320 431.199680 378.450173
       Q 430.416192 365.228284 426.073806 352.629718
       Q 422.544462 341.941798 416.544722 332.116931
       Q 411.463026 323.613761 404.638359 316.002992
       z"
  />
  <path
    style="stroke:black; stroke-width:3; fill:stroke:black; stroke-width:3; fill:green"
    d="M 419.600075 288.134242
       Q 422.782660 279.657149 424.560160 270.820862
       Q 426.534601 261.245487 426.817709 251.480709
       Q 427.180807 240.858402 425.537348 230.318267
       Q 433.266643 225.797143 440.153717 221.760868
       Q 448.886510 216.653056 456.388876 212.255080
       Q 466.401224 206.400207 474.457783 201.675242
       Q 489.670405 228.015671 492.738782 257.638502
       Q 495.640311 284.822542 487.943987 309.672423
       Q 481.509207 331.195116 468.245672 347.980973
       Q 462.695393 334.157814 453.455739 321.644623
       Q 446.256372 311.466884 436.735486 302.421198
       Q 428.944232 294.804155 419.600075 288.134242
       z"
  />
  <path
    style="stroke:black; stroke-width:3; fill:stroke:black; stroke-width:3; fill:green"
    d="M 300.000000 503.746305
       Q 300.000000 494.521458 300.000000 483.040098
       Q 300.000000 474.447838 300.000000 464.434949
       Q 300.000000 456.546358 300.000000 447.684322
       Q 309.928321 443.879342 318.923261 438.298345
       Q 327.216346 433.213573 334.499126 426.760206
       Q 341.241076 420.845190 346.969368 413.893234
       Q 357.467179 418.565611 368.011768 421.415296
       Q 380.663308 425.040302 393.136065 426.087244
       Q 408.658121 427.722549 423.469355 425.510502
       Q 415.608823 445.300654 400.217987 461.568690
       Q 382.578323 480.587697 357.599398 491.630340
       Q 330.425244 503.746305 300.000000 503.746305
       z"
  />
  <path
    style="stroke:black; stroke-width:3; fill:stroke:black; stroke-width:3; fill:green"
    d="M 300.000000 545.973246
       Q 300.000000 558.579915 300.000000 552.343813
       Q 300.000000 546.523626 300.000000 495.134355
       Q 300.000000 422.020884 300.000000 301.556049
       Q 404.359689 241.323631 467.624680 204.894709
       Q 512.082567 179.305807 517.027192 176.564449
       Q 522.351528 173.581543 511.336946 180.046459
       Q 539.833655 229.388089 538.499744 282.986449
       Q 537.804848 327.895778 516.878894 362.241500
       Q 501.579958 388.917747 477.474548 404.771681
       Q 475.865887 433.441280 460.463307 459.924252
       Q 441.238157 495.099570 402.717990 518.090542
       Q 356.993419 545.973246 300.000000 545.973246
       z"
  />
  <path
    style="stroke:black; stroke-width:3; fill:stroke:black; stroke-width:3; fill:green"
    d="M 419.501755 288.314454
       Q 417.623341 293.402661 415.240016 298.308537
       Q 412.976844 302.996683 410.268283 307.482927
       Q 407.685931 311.781550 404.711270 315.864782
       Q 411.463026 323.613761 416.544722 332.116931
       Q 422.544462 341.941798 426.073806 352.629718
       Q 430.416192 365.228284 431.199680 378.450173
       Q 437.737366 375.238374 443.766537 371.082353
       Q 450.384988 366.597190 456.281990 361.067456
       Q 462.764238 355.083443 468.245672 347.980973
       Q 462.695393 334.157814 453.455739 321.644623
       Q 446.256372 311.466884 436.735486 302.421198
       Q 428.944232 294.804155 419.600075 288.134242
       z"
  />
  <path
    style="stroke:black; stroke-width:3; fill:stroke:black; stroke-width:3; fill:green"
    d="M 300.000000 545.418393
       Q 300.000000 540.958911 300.000000 532.652157
       Q 300.000000 526.607427 300.000000 518.216695
       Q 300.000000 511.788889 300.000000 503.838233
       Q 330.425244 503.746305 357.599398 491.630340
       Q 382.578323 480.587697 400.217987 461.568690
       Q 415.608823 445.300654 423.469355 425.510502
       Q 432.011712 424.412160 440.194109 422.087693
       Q 449.537179 419.584411 458.287819 415.554564
       Q 468.363948 411.109089 477.474548 404.771681
       Q 475.865887 433.441280 460.463307 459.924252
       Q 441.238157 495.099570 402.717990 518.090542
       Q 356.993419 545.973246 300.000000 545.973246
       z"
  />
  <path
    style="stroke:black; stroke-width:3; fill:stroke:black; stroke-width:3; fill:green"
    d="M 347.075802 413.718916
       Q 350.529557 409.574553 353.573096 405.083895
       Q 356.488422 400.805548 359.006460 396.242013
       Q 361.425364 391.881034 363.461942 387.287381
       Q 373.591706 389.187389 383.542063 389.260545
       Q 395.099568 389.462226 406.169757 387.093284
       Q 419.305479 384.466320 431.199680 378.450173
       Q 431.710724 385.673415 431.148519 392.930263
       Q 430.596821 400.860108 428.778045 408.690129
       Q 426.859335 417.252250 423.469355 425.510502
       Q 408.658121 427.722549 393.136065 426.087244
       Q 380.663308 425.040302 368.011768 421.415296
       Q 357.467179 418.565611 346.969368 413.893234
       z"
  />
  <path
    style="stroke:black; stroke-width:3; fill:stroke:black; stroke-width:3; fill:green"
    d="M 510.853918 180.327963
       Q 506.940385 182.644704 499.690551 186.890930
       Q 494.405886 189.996519 487.086850 194.278591
       Q 481.472970 197.571134 474.538684 201.627092
       Q 489.670405 228.015671 492.738782 257.638502
       Q 495.640311 284.822542 487.943987 309.672423
       Q 481.509207 331.195116 468.245672 347.980973
       Q 471.597153 355.870557 473.705652 364.062954
       Q 476.241471 373.346326 477.157277 382.882377
       Q 478.377795 393.770260 477.474548 404.771681
       Q 501.579958 388.917747 516.878894 362.241500
       Q 537.804848 327.895778 538.499744 282.986449
       Q 539.833655 229.388089 511.336946 180.046459
       z"
  />
  <path
    style="stroke:black; stroke-width:3; fill:stroke:black; stroke-width:3; fill:green"
    d="M 468.245672 347.980973
       Q 462.764238 355.083443 456.281990 361.067456
       Q 450.384988 366.597190 443.766537 371.082353
       Q 437.737366 375.238374 431.199680 378.450173
       Q 431.710724 385.673415 431.148519 392.930263
       Q 430.596821 400.860108 428.778045 408.690129
       Q 426.859335 417.252250 423.469355 425.510502
       Q 432.011712 424.412160 440.194109 422.087693
       Q 449.537179 419.584411 458.287819 415.554564
       Q 468.363948 411.109089 477.474548 404.771681
       Q 478.377795 393.770260 477.157277 382.882377
       Q 476.241471 373.346326 473.705652 364.062954
       Q 471.597153 355.870557 468.245672 347.980973
       z"
  />
  <path
    style="stroke:black; stroke-width:3; fill:stroke:black; stroke-width:3; fill:orange"
    d="M 294.325633 234.363428
       Q 297.654134 238.938776 300.827479 243.796715
       Q 303.850161 248.415702 306.713675 253.268773
       Q 309.469221 257.933536 312.060287 262.790707
       Q 317.599746 263.140077 323.075901 263.807997
       Q 328.651196 264.487225 334.121339 265.490270
       Q 339.740211 266.518766 345.208705 267.879178
       Q 346.540149 260.104657 346.979088 252.427717
       Q 347.467923 244.148948 346.927165 236.118798
       Q 346.360312 227.292810 344.585873 218.920089
       Q 335.333730 219.366479 326.189636 221.478898
       Q 317.639055 223.434951 309.411844 226.807715
       Q 301.628177 229.985806 294.325633 234.363428
       z"
  />
  <path
    style="stroke:black; stroke-width:3; fill:stroke:black; stroke-width:3; fill:orange"
    d="M 279.523368 216.141936
       Q 275.083213 211.250127 270.492404 206.857969
       Q 265.427838 201.974348 260.212784 197.711509
       Q 254.366034 192.877632 248.370866 188.831602
       Q 251.320415 180.604716 255.329310 173.103217
       Q 259.820655 164.484860 265.585180 156.927917
       Q 272.147997 148.091048 280.232840 140.837622
       Q 294.505511 146.405720 306.342061 155.915531
       Q 316.361207 163.724139 324.147192 173.953492
       Q 330.862079 182.562219 335.691835 192.664706
       Q 325.088567 194.531813 314.735194 198.144307
       Q 305.191452 201.436389 296.066850 206.161676
       Q 287.525924 210.559276 279.523368 216.141936
       z"
  />
  <path
    style="stroke:black; stroke-width:3; fill:stroke:black; stroke-width:3; fill:orange"
    d="M 474.457783 201.675242
       Q 466.401224 206.400207 456.388876 212.255080
       Q 448.886510 216.653056 440.153717 221.760868
       Q 433.266643 225.797143 425.537348 230.318267
       Q 417.252487 223.667661 407.894448 218.715363
       Q 399.318255 214.120788 390.061034 211.086137
       Q 381.541583 208.248837 372.630707 206.807479
       Q 371.477052 195.300587 368.723718 184.659831
       Q 365.593065 171.799563 360.319674 160.380908
       Q 354.037272 146.017890 344.776318 134.195617
       Q 365.900384 131.020155 387.726000 136.146465
       Q 413.061988 141.839400 435.139384 157.905999
       Q 459.245161 175.334812 474.457783 201.675242
       z"
  />
  <path
    style="stroke:black; stroke-width:3; fill:stroke:black; stroke-width:3; fill:orange"
    d="M 511.336946 180.046459
       Q 522.351528 173.581543 517.027192 176.564449
       Q 512.082567 179.305807 467.624680 204.894709
       Q 404.359689 241.323631 300.000000 301.556049
       Q 195.640311 241.323631 132.375320 204.894709
       Q 87.917433 179.305807 82.972808 176.564449
       Q 77.648472 173.581543 88.663054 180.046459
       Q 117.159764 130.704830 164.218246 105.131773
       Q 203.433309 83.344004 243.584413 84.401665
       Q 274.285929 84.408574 300.000000 97.477134
       Q 325.714071 84.408574 356.415587 84.401665
       Q 396.566691 83.344004 435.781754 105.131773
       Q 482.840236 130.704830 511.336946 180.046459
       z"
  />
  <path
    style="stroke:black; stroke-width:3; fill:stroke:black; stroke-width:3; fill:orange"
    d="M 279.619532 216.261159
       Q 282.264047 219.156465 284.848230 222.232557
       Q 287.311071 225.156068 289.712865 228.239106
       Q 292.013663 231.186041 294.252569 234.274179
       Q 301.628177 229.985806 309.411844 226.807715
       Q 317.639055 223.434951 326.189636 221.478898
       Q 335.333730 219.366479 344.585873 218.920089
       Q 343.676494 214.552313 342.449938 210.336759
       Q 341.161096 205.859314 339.526008 201.574025
       Q 337.798340 196.998554 335.691835 192.664706
       Q 325.088567 194.531813 314.735194 198.144307
       Q 305.191452 201.436389 296.066850 206.161676
       Q 287.525924 210.559276 279.523368 216.141936
       z"
  />
  <path
    style="stroke:black; stroke-width:3; fill:stroke:black; stroke-width:3; fill:orange"
    d="M 510.853918 180.327963
       Q 506.940385 182.644704 499.690551 186.890930
       Q 494.405886 189.996519 487.086850 194.278591
       Q 481.472970 197.571134 474.538684 201.627092
       Q 459.245161 175.334812 435.139384 157.905999
       Q 413.061988 141.839400 387.726000 136.146465
       Q 365.900384 131.020155 344.776318 134.195617
       Q 339.585441 127.294235 333.511543 121.318934
       Q 326.704292 114.424919 318.869458 108.809367
       Q 310.013848 102.250583 300.000000 97.477134
       Q 325.714071 84.408574 356.415587 84.401665
       Q 396.566691 83.344004 435.781754 105.131773
       Q 482.840236 130.704830 511.336946 180.046459
       z"
  />
  <path
    style="stroke:black; stroke-width:3; fill:stroke:black; stroke-width:3; fill:orange"
    d="M 366.767927 274.752288
       Q 363.244031 273.358319 359.606075 272.114611
       Q 356.080207 270.906488 352.456809 269.844336
       Q 348.930253 268.808607 345.321126 267.915244
       Q 346.540149 260.104657 346.979088 252.427717
       Q 347.467923 244.148948 346.927165 236.118798
       Q 346.360312 227.292810 344.585873 218.920089
       Q 349.286266 218.682943 353.962458 218.878010
       Q 358.829510 219.072984 363.632181 219.732577
       Q 368.642278 220.411147 373.539963 221.587290
       Q 373.748308 230.925074 372.891649 240.636552
       Q 372.165220 249.357334 370.556719 258.289859
       Q 369.104655 266.496953 366.901990 274.794767
       z"
  />
  <path
    style="stroke:black; stroke-width:3; fill:stroke:black; stroke-width:3; fill:orange"
    d="M 326.307418 115.189262
       Q 316.761787 117.852843 307.958240 122.136340
       Q 300.000000 125.904414 292.793125 130.910753
       Q 286.255762 135.352257 280.428840 140.737065
       Q 294.505511 146.405720 306.342061 155.915531
       Q 316.361207 163.724139 324.147192 173.953492
       Q 330.862079 182.562219 335.691835 192.664706
       Q 341.152200 191.682614 346.629295 191.169286
       Q 352.388757 190.613415 358.129287 190.575728
       Q 364.187745 190.516877 370.182118 191.031374
       Q 367.691982 178.569651 363.234775 167.353172
       Q 357.990745 153.409132 350.036402 141.619992
       Q 340.252991 126.298280 326.663080 114.977757
       z"
  />
  <path
    style="stroke:black; stroke-width:3; fill:stroke:black; stroke-width:3; fill:orange"
    d="M 335.691835 192.664706
       Q 337.798340 196.998554 339.526008 201.574025
       Q 341.161096 205.859314 342.449938 210.336759
       Q 343.676494 214.552313 344.585873 218.920089
       Q 349.286266 218.682943 353.962458 218.878010
       Q 358.829510 219.072984 363.632181 219.732577
       Q 368.642278 220.411147 373.539963 221.587290
       Q 373.456654 216.651159 373.084662 211.839101
       Q 372.707855 206.673899 372.007055 201.665036
       Q 371.278124 196.249561 370.182118 191.031374
       Q 364.187745 190.516877 358.129287 190.575728
       Q 352.388757 190.613415 346.629295 191.169286
       Q 341.152200 191.682614 335.691835 192.664706
       z"
  />
  <path
    style="stroke:black; stroke-width:3; fill:stroke:black; stroke-width:3; fill:purple"
    d="M 149.942747 366.432985
       Q 152.143377 355.877265 156.475694 345.849373
       Q 160.101090 337.147808 165.282533 329.017876
       Q 169.739998 321.859998 175.356244 315.255337
       Q 173.675265 305.534699 173.693095 295.662142
       Q 173.710235 285.685187 175.462530 275.857143
       Q 177.227079 265.958030 180.697813 256.516954
       Q 170.251835 252.799225 160.829406 250.125031
       Q 148.401295 246.558196 137.607026 244.643837
       Q 122.234062 241.758410 109.861556 241.799280
       Q 103.614427 269.593734 108.783694 296.344521
       Q 113.124500 319.801569 125.359098 338.866595
       Q 135.439576 355.070170 149.942747 366.432985
       z"
  />
  <path
    style="stroke:black; stroke-width:3; fill:stroke:black; stroke-width:3; fill:purple"
    d="M 253.030632 413.893234
       Q 258.758924 420.845190 265.500874 426.760206
       Q 272.783654 433.213573 281.076739 438.298345
       Q 290.071679 443.879342 300.000000 447.684322
       Q 300.000000 456.546358 300.000000 464.434949
       Q 300.000000 474.447838 300.000000 483.040098
       Q 300.000000 494.521458 300.000000 503.746305
       Q 269.574756 503.746305 242.400602 491.630340
       Q 217.421677 480.587697 199.782013 461.568690
       Q 184.391177 445.300654 176.530645 425.510502
       Q 191.341879 427.722549 206.863935 426.087244
       Q 219.336692 425.040302 231.988232 421.415296
       Q 242.532821 418.565611 253.030632 413.893234
       z"
  />
  <path
    style="stroke:black; stroke-width:3; fill:stroke:black; stroke-width:3; fill:purple"
    d="M 280.232840 140.837622
       Q 272.147997 148.091048 265.585180 156.927917
       Q 259.820655 164.484860 255.329310 173.103217
       Q 251.320415 180.604716 248.370866 188.831602
       Q 239.113566 192.229252 230.573101 197.175256
       Q 221.941867 202.172832 214.306153 208.599988
       Q 206.615005 215.073272 200.172620 222.796614
       Q 191.791287 215.503985 184.828585 208.570808
       Q 175.597785 199.467876 168.616633 190.951162
       Q 158.516385 178.936106 152.449790 168.058384
       Q 173.388738 148.780550 199.112024 139.942358
       Q 221.569956 132.029871 244.155947 133.171614
       Q 263.189768 133.872608 280.232840 140.837622
       z"
  />
  <path
    style="stroke:black; stroke-width:3; fill:stroke:black; stroke-width:3; fill:purple"
    d="M 88.663054 180.046459
       Q 77.648472 173.581543 82.972808 176.564449
       Q 87.917433 179.305807 132.375320 204.894709
       Q 195.640311 241.323631 300.000000 301.556049
       Q 300.000000 422.020884 300.000000 495.134355
       Q 300.000000 546.523626 300.000000 552.343813
       Q 300.000000 558.579915 300.000000 545.973246
       Q 243.006581 545.973246 197.282010 518.090542
       Q 158.761843 495.099570 139.536693 459.924252
       Q 124.134113 433.441280 122.525452 404.771681
       Q 98.420042 388.917747 83.121106 362.241500
       Q 62.195152 327.895778 61.500256 282.986449
       Q 60.166345 229.388089 88.663054 180.046459
       z"
  />
  <path
    style="stroke:black; stroke-width:3; fill:stroke:black; stroke-width:3; fill:purple"
    d="M 150.924631 418.861956
       Q 148.433285 409.311148 147.714320 399.596311
       Q 146.972863 390.868630 147.678384 382.174774
       Q 148.230682 374.340634 149.954443 366.651548
       Q 135.439576 355.070170 125.359098 338.866595
       Q 113.124500 319.801569 108.783694 296.344521
       Q 103.614427 269.593734 109.861556 241.799280
       Q 101.679149 241.653477 94.710167 242.621945
       Q 85.766612 243.650588 78.718619 246.302624
       Q 69.314914 249.413452 63.064106 254.958747
       Q 56.574395 303.660152 74.047878 344.106850
       Q 86.928728 375.837715 111.182945 396.037748
       Q 128.877162 411.802011 150.920323 419.273733
       z"
  />
  <path
    style="stroke:black; stroke-width:3; fill:stroke:black; stroke-width:3; fill:purple"
    d="M 326.307418 115.189262
       Q 316.761787 117.852843 307.958240 122.136340
       Q 300.000000 125.904414 292.793125 130.910753
       Q 286.255762 135.352257 280.428840 140.737065
       Q 263.189768 133.872608 244.155947 133.171614
       Q 221.569956 132.029871 199.112024 139.942358
       Q 173.388738 148.780550 152.449790 168.058384
       Q 148.278137 160.968021 145.677280 154.373144
       Q 142.145724 146.030993 140.966194 138.521872
       Q 139.011509 128.734831 140.738754 120.466246
       Q 179.655540 90.546975 223.370548 85.556863
       Q 257.245727 80.936358 286.799982 91.959454
       Q 309.240692 99.505234 326.663080 114.977757
       z"
  />
  <path
    style="stroke:black; stroke-width:3; fill:stroke:black; stroke-width:3; fill:purple"
    d="M 200.062451 222.987370
       Q 195.918318 227.936025 192.372932 233.328840
       Q 188.824765 238.725880 185.923103 244.496625
       Q 183.023709 250.262848 180.807982 256.326198
       Q 170.251835 252.799225 160.829406 250.125031
       Q 148.401295 246.558196 137.607026 244.643837
       Q 122.234062 241.758410 109.861556 241.799280
       Q 112.983948 227.826331 118.910963 214.633729
       Q 124.898827 201.302353 133.451299 189.457353
       Q 141.913988 177.734395 152.449790 168.058384
       Q 158.516385 178.936106 168.616633 190.951162
       Q 175.597785 199.467876 184.828585 208.570808
       Q 191.791287 215.503985 200.172620 222.796614
       z"
  />
  <path
    style="stroke:black; stroke-width:3; fill:stroke:black; stroke-width:3; fill:purple"
    d="M 300.000000 545.418393
       Q 300.000000 540.958911 300.000000 532.652157
       Q 300.000000 526.607427 300.000000 518.216695
       Q 300.000000 511.788889 300.000000 503.838233
       Q 269.574756 503.746305 242.400602 491.630340
       Q 217.421677 480.587697 199.782013 461.568690
       Q 184.391177 445.300654 176.530645 425.510502
       Q 167.988288 424.412160 159.805891 422.087693
       Q 150.462821 419.584411 141.712181 415.554564
       Q 131.636052 411.109089 122.525452 404.771681
       Q 124.134113 433.441280 139.536693 459.924252
       Q 158.761843 495.099570 197.282010 518.090542
       Q 243.006581 545.973246 300.000000 545.973246
       z"
  />
  <path
    style="stroke:black; stroke-width:3; fill:stroke:black; stroke-width:3; fill:purple"
    d="M 63.064106 254.958747
       Q 69.314914 249.413452 78.718619 246.302624
       Q 85.766612 243.650588 94.710167 242.621945
       Q 101.679149 241.653477 109.861556 241.799280
       Q 112.983948 227.826331 118.910963 214.633729
       Q 124.898827 201.302353 133.451299 189.457353
       Q 141.913988 177.734395 152.449790 168.058384
       Q 148.278137 160.968021 145.677280 154.373144
       Q 142.145724 146.030993 140.966194 138.521872
       Q 139.011509 128.734831 140.738754 120.466246
       Q 120.096006 136.213870 103.786274 157.434347
       Q 87.094838 179.138440 76.633103 204.449659
       Q 66.399534 229.188515 63.064106 254.958747
       z"
  />
  <path
    style="stroke:black; stroke-width:3; fill:stroke:black; stroke-width:3; fill:red"
    d="M 285.390779 306.497694
       Q 282.874847 311.011161 280.451101 315.527112
       Q 277.981402 320.128228 275.619719 324.708015
       Q 273.188982 329.420565 270.883891 334.087025
       Q 265.391194 334.253985 259.986114 334.176852
       Q 254.364186 334.099934 248.868544 333.762842
       Q 243.090986 333.414057 237.483624 332.784523
       Q 237.596492 324.667172 238.889597 316.560449
       Q 240.138084 308.710317 242.471561 301.041524
       Q 244.756730 293.526707 248.038363 286.346521
       Q 254.361245 289.586818 260.842629 293.031777
       Q 267.000108 296.306710 273.250970 299.737302
       Q 279.304314 303.060390 285.390779 306.497694
       z"
  />
  <path
    style="stroke:black; stroke-width:3; fill:stroke:black; stroke-width:3; fill:red"
    d="M 295.361142 289.234159
       Q 298.016616 284.793414 300.723786 280.425260
       Q 303.481823 275.974628 306.278804 271.622265
       Q 309.156419 267.143482 312.060287 262.790707
       Q 309.469221 257.933536 306.713675 253.268773
       Q 303.850161 248.415702 300.827479 243.796715
       Q 297.654134 238.938776 294.325633 234.363428
       Q 287.334713 238.546179 280.946865 243.738913
       Q 274.759178 248.764407 269.275083 254.631624
       Q 263.900298 260.379903 259.317800 266.816344
       Q 265.261681 270.712875 271.468208 274.633743
       Q 277.365949 278.358410 283.451513 282.075213
       Q 289.345374 285.674444 295.361142 289.234159
       z"
  />
  <path
    style="stroke:black; stroke-width:3; fill:stroke:black; stroke-width:3; fill:red"
    d="M 180.697813 256.516954
       Q 177.227079 265.958030 175.462530 275.857143
       Q 173.710235 285.685187 173.693095 295.662142
       Q 173.675265 305.534699 175.356244 315.255337
       Q 181.820872 318.488504 188.895540 321.196258
       Q 195.161592 323.639311 201.892296 325.638038
       Q 207.961858 327.469757 214.391348 328.917062
       Q 215.153244 319.722506 217.086202 310.574823
       Q 218.940523 301.766088 221.857871 293.156763
       Q 224.704166 284.748880 228.520968 276.677871
       Q 221.056693 273.117764 213.961851 269.945764
       Q 205.819284 266.314292 198.179851 263.199804
       Q 189.088870 259.501231 180.697813 256.516954
       z"
  />
  <path
    style="stroke:black; stroke-width:3; fill:stroke:black; stroke-width:3; fill:red"
    d="M 200.172620 222.796614
       Q 206.615005 215.073272 214.306153 208.599988
       Q 221.941867 202.172832 230.573101 197.175256
       Q 239.113566 192.229252 248.370866 188.831602
       Q 254.366034 192.877632 260.212784 197.711509
       Q 265.427838 201.974348 270.492404 206.857969
       Q 275.083213 211.250127 279.523368 216.141936
       Q 271.921585 221.428966 264.950267 227.698904
       Q 258.233509 233.730865 252.225582 240.575522
       Q 246.356737 247.257774 241.269695 254.603639
       Q 234.489588 249.858905 228.235675 245.230850
       Q 221.062556 239.920792 214.593567 234.779700
       Q 206.896749 228.667152 200.172620 222.796614
       z"
  />
  <path
    style="stroke:black; stroke-width:3; fill:stroke:black; stroke-width:3; fill:red"
    d="M 295.304739 289.331819
       Q 293.618353 292.150796 291.958189 294.991698
       Q 290.301280 297.827024 288.674195 300.677884
       Q 287.043910 303.534348 285.447181 306.400034
       Q 279.304314 303.060390 273.250970 299.737302
       Q 267.000108 296.306710 260.842629 293.031777
       Q 254.361245 289.586818 248.038363 286.346521
       Q 249.602821 282.923297 251.383169 279.602325
       Q 253.161092 276.285864 255.145697 273.087563
       Q 257.132998 269.884907 259.317800 266.816344
       Q 265.261681 270.712875 271.468208 274.633743
       Q 277.365949 278.358410 283.451513 282.075213
       Q 289.345374 285.674444 295.361142 289.234159
       z"
  />
  <path
    style="stroke:black; stroke-width:3; fill:stroke:black; stroke-width:3; fill:red"
    d="M 200.062451 222.987370
       Q 195.918318 227.936025 192.372932 233.328840
       Q 188.824765 238.725880 185.923103 244.496625
       Q 183.023709 250.262848 180.807982 256.326198
       Q 189.088870 259.501231 198.179851 263.199804
       Q 205.819284 266.314292 213.961851 269.945764
       Q 221.056693 273.117764 228.520968 276.677871
       Q 230.338600 272.833926 232.366416 269.090436
       Q 234.391013 265.352865 236.617155 261.730345
       Q 238.846816 258.102076 241.269695 254.603639
       Q 234.489588 249.858905 228.235675 245.230850
       Q 221.062556 239.920792 214.593567 234.779700
       Q 206.896749 228.667152 200.172620 222.796614
       z"
  />
  <path
    style="stroke:black; stroke-width:3; fill:stroke:black; stroke-width:3; fill:red"
    d="M 214.542143 328.941693
       Q 218.355063 329.813922 222.295517 330.541652
       Q 226.043501 331.239956 229.900297 331.803678
       Q 233.589005 332.347471 237.370274 332.765030
       Q 237.596492 324.667172 238.889597 316.560449
       Q 240.138084 308.710317 242.471561 301.041524
       Q 244.756730 293.526707 248.038363 286.346521
       Q 244.840096 284.708915 241.690813 283.128613
       Q 238.413133 281.485039 235.193345 279.906331
       Q 231.823302 278.255351 228.520968 276.677871
       Q 224.704166 284.748880 221.857871 293.156763
       Q 218.940523 301.766088 217.086202 310.574823
       Q 215.153244 319.722506 214.391348 328.917062
       z"
  />
  <path
    style="stroke:black; stroke-width:3; fill:stroke:black; stroke-width:3; fill:red"
    d="M 279.619532 216.261159
       Q 282.264047 219.156465 284.848230 222.232557
       Q 287.311071 225.156068 289.712865 228.239106
       Q 292.013663 231.186041 294.252569 234.274179
       Q 287.334713 238.546179 280.946865 243.738913
       Q 274.759178 248.764407 269.275083 254.631624
       Q 263.900298 260.379903 259.317800 266.816344
       Q 256.312130 264.845257 253.381961 262.885563
       Q 250.333041 260.845894 247.370592 258.821609
       Q 244.270735 256.702806 241.269695 254.603639
       Q 246.356737 247.257774 252.225582 240.575522
       Q 258.233509 233.730865 264.950267 227.698904
       Q 271.921585 221.428966 279.523368 216.141936
       z"
  />
  <path
    style="stroke:black; stroke-width:3; fill:stroke:black; stroke-width:3; fill:red"
    d="M 259.317800 266.816344
       Q 257.132998 269.884907 255.145697 273.087563
       Q 253.161092 276.285864 251.383169 279.602325
       Q 249.602821 282.923297 248.038363 286.346521
       Q 244.840096 284.708915 241.690813 283.128613
       Q 238.413133 281.485039 235.193345 279.906331
       Q 231.823302 278.255351 228.520968 276.677871
       Q 230.338600 272.833926 232.366416 269.090436
       Q 234.391013 265.352865 236.617155 261.730345
       Q 238.846816 258.102076 241.269695 254.603639
       Q 244.270735 256.702806 247.370592 258.821609
       Q 250.333041 260.845894 253.381961 262.885563
       Q 256.312130 264.845257 259.317800 266.816344
       z"
  />
  <path
    style="stroke:black; stroke-width:3; fill:stroke:black; stroke-width:3; fill:blue"
    d="M 237.483624 332.784523
       Q 243.090986 333.414057 248.868544 333.762842
       Q 254.364186 334.099934 259.986114 334.176852
       Q 265.391194 334.253985 270.883891 334.087025
       Q 273.959676 338.702211 277.282827 343.098026
       Q 280.665401 347.573916 284.278934 351.791655
       Q 287.989006 356.125209 291.914369 360.157532
       Q 285.865661 365.161632 279.459925 369.336147
       Q 272.558716 373.853128 265.362298 377.347155
       Q 257.464807 381.214058 249.359742 383.802722
       Q 245.095080 375.613363 242.329949 366.680703
       Q 239.726865 358.338751 238.515648 349.563426
       Q 237.358086 341.268515 237.483624 332.784523
       z"
  />
  <path
    style="stroke:black; stroke-width:3; fill:stroke:black; stroke-width:3; fill:blue"
    d="M 214.391348 328.917062
       Q 207.961858 327.469757 201.892296 325.638038
       Q 195.161592 323.639311 188.895540 321.196258
       Q 181.820872 318.488504 175.356244 315.255337
       Q 169.739998 321.859998 165.282533 329.017876
       Q 160.101090 337.147808 156.475694 345.849373
       Q 152.143377 355.877265 149.942747 366.432985
       Q 161.854926 376.088238 175.959481 381.671034
       Q 187.685758 386.523771 200.391222 388.235118
       Q 211.160801 389.823206 222.282582 389.031144
       Q 218.568440 378.969832 216.494136 368.247242
       Q 214.548146 358.383930 214.056819 348.160828
       Q 213.574188 338.605609 214.391348 328.917062
       z"
  />
  <path
    style="stroke:black; stroke-width:3; fill:stroke:black; stroke-width:3; fill:blue"
    d="M 363.544759 387.155949
       Q 366.584383 380.371844 368.756543 373.177132
       Q 370.822847 366.391235 372.081257 359.327505
       Q 373.289585 352.614479 373.746269 345.731668
       Q 368.801833 342.911022 363.640381 339.961732
       Q 358.858739 337.230600 353.901678 334.394653
       Q 349.245992 331.731905 344.449938 328.984428
       Q 340.573928 335.695682 336.267555 342.098637
       Q 331.890375 348.608508 327.123433 354.724562
       Q 322.197563 361.050787 316.919036 366.886724
       Q 323.570132 371.552328 330.535472 375.253967
       Q 338.139157 379.323162 345.978613 382.192924
       Q 354.704764 385.433295 363.544759 387.155949
       z"
  />
  <path
    style="stroke:black; stroke-width:3; fill:stroke:black; stroke-width:3; fill:blue"
    d="M 346.969368 413.893234
       Q 341.241076 420.845190 334.499126 426.760206
       Q 327.216346 433.213573 318.923261 438.298345
       Q 309.928321 443.879342 300.000000 447.684322
       Q 290.071679 443.879342 281.076739 438.298345
       Q 272.783654 433.213573 265.500874 426.760206
       Q 258.758924 420.845190 253.030632 413.893234
       Q 262.064101 409.984682 270.941392 404.724280
       Q 278.794642 400.144201 286.428373 394.522772
       Q 293.346263 389.476173 300.000000 383.605230
       Q 306.653737 389.476173 313.571627 394.522772
       Q 321.205358 400.144201 329.058608 404.724280
       Q 337.935899 409.984682 346.969368 413.893234
       z"
  />
  <path
    style="stroke:black; stroke-width:3; fill:stroke:black; stroke-width:3; fill:blue"
    d="M 214.542143 328.941693
       Q 218.355063 329.813922 222.295517 330.541652
       Q 226.043501 331.239956 229.900297 331.803678
       Q 233.589005 332.347471 237.370274 332.765030
       Q 237.358086 341.268515 238.515648 349.563426
       Q 239.726865 358.338751 242.329949 366.680703
       Q 245.095080 375.613363 249.359742 383.802722
       Q 245.138937 385.168631 240.892089 386.182668
       Q 236.387744 387.272818 231.877302 387.966164
       Q 227.069780 388.723414 222.282582 389.031144
       Q 218.568440 378.969832 216.494136 368.247242
       Q 214.548146 358.383930 214.056819 348.160828
       Q 213.574188 338.605609 214.391348 328.917062
       z"
  />
  <path
    style="stroke:black; stroke-width:3; fill:stroke:black; stroke-width:3; fill:blue"
    d="M 347.075802 413.718916
       Q 350.529557 409.574553 353.573096 405.083895
       Q 356.488422 400.805548 359.006460 396.242013
       Q 361.425364 391.881034 363.461942 387.287381
       Q 354.704764 385.433295 345.978613 382.192924
       Q 338.139157 379.323162 330.535472 375.253967
       Q 323.570132 371.552328 316.919036 366.886724
       Q 314.291939 369.796108 311.589360 372.573171
       Q 308.809645 375.433801 305.958364 378.148108
       Q 303.012977 380.957662 300.000000 383.605230
       Q 306.653737 389.476173 313.571627 394.522772
       Q 321.205358 400.144201 329.058608 404.724280
       Q 337.935899 409.984682 346.969368 413.893234
       z"
  />
  <path
    style="stroke:black; stroke-width:3; fill:stroke:black; stroke-width:3; fill:blue"
    d="M 308.708860 375.280701
       Q 305.727383 372.947542 302.820175 370.438556
       Q 300.000000 368.008534 297.258679 365.419077
       Q 294.588795 362.900034 292.002154 360.236253
       Q 285.865661 365.161632 279.459925 369.336147
       Q 272.558716 373.853128 265.362298 377.347155
       Q 257.464807 381.214058 249.359742 383.802722
       Q 251.516982 387.969008 254.036921 391.897594
       Q 256.652463 395.991025 259.638581 399.795952
       Q 262.745130 403.770488 266.226667 407.398669
       Q 274.380385 402.979158 282.329583 397.443425
       Q 289.487441 392.512682 296.392509 386.704088
       Q 302.748522 381.391612 308.813052 375.374902
       z"
  />
  <path
    style="stroke:black; stroke-width:3; fill:stroke:black; stroke-width:3; fill:blue"
    d="M 150.924631 418.861956
       Q 148.433285 409.311148 147.714320 399.596311
       Q 146.972863 390.868630 147.678384 382.174774
       Q 148.230682 374.340634 149.954443 366.651548
       Q 161.854926 376.088238 175.959481 381.671034
       Q 187.685758 386.523771 200.391222 388.235118
       Q 211.160801 389.823206 222.282582 389.031144
       Q 224.176874 394.223656 226.486139 399.195378
       Q 228.900115 404.432167 231.753937 409.392771
       Q 234.748817 414.638460 238.208628 419.541515
       Q 226.220590 423.525268 214.329516 425.180419
       Q 199.687630 427.508626 185.557158 426.413363
       Q 167.458948 425.488601 150.920323 419.273733
       z"
  />
  <path
    style="stroke:black; stroke-width:3; fill:stroke:black; stroke-width:3; fill:blue"
    d="M 222.282582 389.031144
       Q 227.069780 388.723414 231.877302 387.966164
       Q 236.387744 387.272818 240.892089 386.182668
       Q 245.138937 385.168631 249.359742 383.802722
       Q 251.516982 387.969008 254.036921 391.897594
       Q 256.652463 395.991025 259.638581 399.795952
       Q 262.745130 403.770488 266.226667 407.398669
       Q 261.928819 409.759950 257.594972 411.807787
       Q 252.953485 414.026814 248.286195 415.885870
       Q 243.253405 417.922461 238.208628 419.541515
       Q 234.748817 414.638460 231.753937 409.392771
       Q 228.900115 404.432167 226.486139 399.195378
       Q 224.176874 394.223656 222.282582 389.031144
       z"
  />
  <path
    style="stroke:black; stroke-width:3; fill:stroke:black; stroke-width:3; fill:yellow"
    d="M 291.914369 360.157532
       Q 287.989006 356.125209 284.278934 351.791655
       Q 280.665401 347.573916 277.282827 343.098026
       Q 273.959676 338.702211 270.883891 334.087025
       Q 273.188982 329.420565 275.619719 324.708015
       Q 277.981402 320.128228 280.451101 315.527112
       Q 282.874847 311.011161 285.390779 306.497694
       Q 291.392030 309.887055 297.367998 313.354110
       Q 303.364299 316.832971 309.276210 320.356084
       Q 315.313448 323.954294 321.203885 327.564977
       Q 317.181219 333.584887 312.660532 339.159198
       Q 308.021968 344.881176 302.931006 350.050488
       Q 297.626144 355.442740 291.914369 360.157532
       z"
  />
  <path
    style="stroke:black; stroke-width:3; fill:stroke:black; stroke-width:3; fill:yellow"
    d="M 344.449938 328.984428
       Q 349.245992 331.731905 353.901678 334.394653
       Q 358.858739 337.230600 363.640381 339.961732
       Q 368.801833 342.911022 373.746269 345.731668
       Q 379.495360 341.869272 384.723357 337.437896
       Q 390.230549 332.787088 395.094689 327.573023
       Q 400.260594 322.061983 404.638359 316.002992
       Q 398.687111 309.278515 391.480907 303.406379
       Q 385.040924 298.113450 377.683500 293.617855
       Q 370.964943 289.488917 363.572773 286.106473
       Q 361.138673 293.624833 358.109183 301.073197
       Q 355.182498 308.278543 351.725589 315.333279
       Q 348.325948 322.273174 344.449938 328.984428
       z"
  />
  <path
    style="stroke:black; stroke-width:3; fill:stroke:black; stroke-width:3; fill:yellow"
    d="M 345.208705 267.879178
       Q 339.740211 266.518766 334.121339 265.490270
       Q 328.651196 264.487225 323.075901 263.807997
       Q 317.599746 263.140077 312.060287 262.790707
       Q 309.156419 267.143482 306.278804 271.622265
       Q 303.481823 275.974628 300.723786 280.425260
       Q 298.016616 284.793414 295.361142 289.234159
       Q 301.292806 292.744009 307.285587 296.181952
       Q 313.298765 299.631591 319.314523 302.974894
       Q 325.458082 306.389009 331.545411 309.658778
       Q 334.753146 303.159355 337.331260 296.442197
       Q 339.978484 289.548944 341.926001 282.531235
       Q 343.960009 275.216341 345.208705 267.879178
       z"
  />
  <path
    style="stroke:black; stroke-width:3; fill:stroke:black; stroke-width:3; fill:yellow"
    d="M 372.630707 206.807479
       Q 381.541583 208.248837 390.061034 211.086137
       Q 399.318255 214.120788 407.894448 218.715363
       Q 417.252487 223.667661 425.537348 230.318267
       Q 427.180807 240.858402 426.817709 251.480709
       Q 426.534601 261.245487 424.560160 270.820862
       Q 422.782660 279.657149 419.600075 288.134242
       Q 411.653096 282.344449 402.616802 277.359357
       Q 394.684248 272.916594 385.963746 269.176892
       Q 378.100748 265.766734 369.660630 262.988882
       Q 371.447011 254.245887 372.392119 245.677821
       Q 373.478890 236.199831 373.558195 227.044809
       Q 373.717198 216.659002 372.630707 206.807479
       z"
  />
  <path
    style="stroke:black; stroke-width:3; fill:stroke:black; stroke-width:3; fill:yellow"
    d="M 308.708860 375.280701
       Q 305.727383 372.947542 302.820175 370.438556
       Q 300.000000 368.008534 297.258679 365.419077
       Q 294.588795 362.900034 292.002154 360.236253
       Q 297.626144 355.442740 302.931006 350.050488
       Q 308.021968 344.881176 312.660532 339.159198
       Q 317.181219 333.584887 321.203885 327.564977
       Q 324.112678 329.348482 326.975978 331.129525
       Q 329.906651 332.952954 332.783695 334.770410
       Q 335.742070 336.639910 338.638047 338.499861
       Q 334.404082 345.063570 329.769482 351.258119
       Q 325.002522 357.634261 319.872829 363.548418
       Q 314.506461 369.746937 308.813052 375.374902
       z"
  />
  <path
    style="stroke:black; stroke-width:3; fill:stroke:black; stroke-width:3; fill:yellow"
    d="M 366.767927 274.752288
       Q 363.244031 273.358319 359.606075 272.114611
       Q 356.080207 270.906488 352.456809 269.844336
       Q 348.930253 268.808607 345.321126 267.915244
       Q 343.960009 275.216341 341.926001 282.531235
       Q 339.978484 289.548944 337.331260 296.442197
       Q 334.753146 303.159355 331.545411 309.658778
       Q 334.551757 311.273372 337.534671 312.847304
       Q 340.588087 314.458205 343.610943 316.023191
       Q 346.719685 317.632331 349.790361 319.189795
       Q 353.363857 312.235000 356.423080 305.107810
       Q 359.573584 297.774981 362.148226 290.349196
       Q 364.851246 282.575690 366.901990 274.794767
       z"
  />
  <path
    style="stroke:black; stroke-width:3; fill:stroke:black; stroke-width:3; fill:yellow"
    d="M 295.304739 289.331819
       Q 293.618353 292.150796 291.958189 294.991698
       Q 290.301280 297.827024 288.674195 300.677884
       Q 287.043910 303.534348 285.447181 306.400034
       Q 291.392030 309.887055 297.367998 313.354110
       Q 303.364299 316.832971 309.276210 320.356084
       Q 315.313448 323.954294 321.203885 327.564977
       Q 323.118522 324.699880 324.909748 321.748444
       Q 326.697894 318.802095 328.356901 315.779751
       Q 330.018775 312.752195 331.545411 309.658778
       Q 325.458082 306.389009 319.314523 302.974894
       Q 313.298765 299.631591 307.285587 296.181952
       Q 301.292806 292.744009 295.361142 289.234159
       z"
  />
  <path
    style="stroke:black; stroke-width:3; fill:stroke:black; stroke-width:3; fill:yellow"
    d="M 419.501755 288.314454
       Q 417.623341 293.402661 415.240016 298.308537
       Q 412.976844 302.996683 410.268283 307.482927
       Q 407.685931 311.781550 404.711270 315.864782
       Q 398.687111 309.278515 391.480907 303.406379
       Q 385.040924 298.113450 377.683500 293.617855
       Q 370.964943 289.488917 363.572773 286.106473
       Q 364.788270 282.362460 365.852671 278.617053
       Q 366.951041 274.762837 367.888112 270.917669
       Q 368.860829 266.943084 369.660630 262.988882
       Q 378.100748 265.766734 385.963746 269.176892
       Q 394.684248 272.916594 402.616802 277.359357
       Q 411.653096 282.344449 419.600075 288.134242
       z"
  />
  <path
    style="stroke:black; stroke-width:3; fill:stroke:black; stroke-width:3; fill:yellow"
    d="M 338.638047 338.499861
       Q 335.742070 336.639910 332.783695 334.770410
       Q 329.906651 332.952954 326.975978 331.129525
       Q 324.112678 329.348482 321.203885 327.564977
       Q 323.118522 324.699880 324.909748 321.748444
       Q 326.697894 318.802095 328.356901 315.779751
       Q 330.018775 312.752195 331.545411 309.658778
       Q 334.551757 311.273372 337.534671 312.847304
       Q 340.588087 314.458205 343.610943 316.023191
       Q 346.719685 317.632331 349.790361 319.189795
       Q 348.091063 322.497357 346.281864 325.751714
       Q 344.476098 328.999921 342.565715 332.186171
       Q 340.651721 335.378468 338.638047 338.499861
       z"
  />
</svg>