<svg xmlns="http://www.w3.org/2000/svg" width="600" height="600">
  <path
    style="stroke:black; stroke-width:3; fill:stroke:black; stroke-width:3; fill:green"
    d="M 404.638359 316.002992
       Q 400.260594 322.061983 395.094689 327.573023
       Q 390.230549 332.787088 384.723357 337.437896
       Q 379.495360 341.869272 373.746269 345.731668
       Q 373.289585 352.614479 372.081257 359.327505
       Q 370.822847 366.391235 368.756543 373.177132
       Q 366.584383 380.371844 363.544759 387.155949
       Q 373.591706 389.187389 383.542063 389.260545
       Q 395.099568 389.462226 406.169757 387.093284
       Q 419.305479 384.466320 431.199680 378.450173
       Q 430.416192 365.228284 426.073806 352.629718
       Q 422.544462 341.941798 416.544722 332.116931
       Q 411.463026 323.613761 404.638359 316.002992
       z"
  />

  <path
    style="stroke:black; stroke-width:3; fill:stroke:black; stroke-width:3; fill:green"
    d="M 300.000000 503.746305
       Q 300.000000 494.521458 300.000000 483.040098
       Q 300.000000 474.447838 300.000000 464.434949
       Q 300.000000 456.546358 300.000000 447.684322
       Q 309.928321 443.879342 318.923261 438.298345
       Q 327.216346 433.213573 334.499126 426.760206
       Q 341.241076 420.845190 346.969368 413.893234
       Q 357.467179 418.565611 368.011768 421.415296
       Q 380.663308 425.040302 393.136065 426.087244
       Q 408.658121 427.722549 423.469355 425.510502
       Q 415.608823 445.300654 400.217987 461.568690
       Q 382.578323 480.587697 357.599398 491.630340
       Q 330.425244 503.746305 300.000000 503.746305
       z"
  />



  <path
    style="stroke:black; stroke-width:3; fill:stroke:black; stroke-width:3; fill:green"
    d="M 347.075802 413.718916
       Q 350.529557 409.574553 353.573096 405.083895
       Q 356.488422 400.805548 359.006460 396.242013
       Q 361.425364 391.881034 363.461942 387.287381
       Q 373.591706 389.187389 383.542063 389.260545
       Q 395.099568 389.462226 406.169757 387.093284
       Q 419.305479 384.466320 431.199680 378.450173
       Q 431.710724 385.673415 431.148519 392.930263
       Q 430.596821 400.860108 428.778045 408.690129
       Q 426.859335 417.252250 423.469355 425.510502
       Q 408.658121 427.722549 393.136065 426.087244
       Q 380.663308 425.040302 368.011768 421.415296
       Q 357.467179 418.565611 346.969368 413.893234
       z"
  />











  <path
    style="stroke:black; stroke-width:3; fill:stroke:black; stroke-width:3; fill:purple"
    d="M 236.455241 387.155949
       Q 233.415617 380.371844 231.243457 373.177132
       Q 229.177153 366.391235 227.918743 359.327505
       Q 226.710415 352.614479 226.253731 345.731668
       Q 220.504640 341.869272 215.276643 337.437896
       Q 209.769451 332.787088 204.905311 327.573023
       Q 199.739406 322.061983 195.361641 316.002992
       Q 188.536974 323.613761 183.455278 332.116931
       Q 177.455538 341.941798 173.926194 352.629718
       Q 169.583808 365.228284 168.800320 378.450173
       Q 180.694521 384.466320 193.830243 387.093284
       Q 204.900432 389.462226 216.457937 389.260545
       Q 226.408294 389.187389 236.455241 387.155949
       z"
  />
  <path
    style="stroke:black; stroke-width:3; fill:stroke:black; stroke-width:3; fill:purple"
    d="M 253.030632 413.893234
       Q 258.758924 420.845190 265.500874 426.760206
       Q 272.783654 433.213573 281.076739 438.298345
       Q 290.071679 443.879342 300.000000 447.684322
       Q 300.000000 456.546358 300.000000 464.434949
       Q 300.000000 474.447838 300.000000 483.040098
       Q 300.000000 494.521458 300.000000 503.746305
       Q 269.574756 503.746305 242.400602 491.630340
       Q 217.421677 480.587697 199.782013 461.568690
       Q 184.391177 445.300654 176.530645 425.510502
       Q 191.341879 427.722549 206.863935 426.087244
       Q 219.336692 425.040302 231.988232 421.415296
       Q 242.532821 418.565611 253.030632 413.893234
       z"
  />


  <path
    style="stroke:black; stroke-width:3; fill:stroke:black; stroke-width:3; fill:purple"
    d="M 252.924198 413.718916
       Q 249.470443 409.574553 246.426904 405.083895
       Q 243.511578 400.805548 240.993540 396.242013
       Q 238.574636 391.881034 236.538058 387.287381
       Q 226.408294 389.187389 216.457937 389.260545
       Q 204.900432 389.462226 193.830243 387.093284
       Q 180.694521 384.466320 168.800320 378.450173
       Q 168.289276 385.673415 168.851481 392.930263
       Q 169.403179 400.860108 171.221955 408.690129
       Q 173.140665 417.252250 176.530645 425.510502
       Q 191.341879 427.722549 206.863935 426.087244
       Q 219.336692 425.040302 231.988232 421.415296
       Q 242.532821 418.565611 253.030632 413.893234
       z"
  />




  <path
    style="stroke:black; stroke-width:3; fill:stroke:black; stroke-width:3; fill:red"
    d="M 300.000000 272.611998
       Q 300.000000 277.757549 300.000000 282.966721
       Q 300.000000 288.077342 300.000000 293.223890
       Q 300.000000 298.321952 300.000000 303.429191
       Q 295.575556 305.982811 291.162563 308.525782
       Q 286.707581 311.092967 282.287207 313.636160
       Q 277.781523 316.228513 273.334398 318.783092
       Q 269.738804 312.557374 266.729327 306.048512
       Q 263.674016 299.441619 261.266552 292.642447
       Q 258.783310 285.635128 257.021815 278.530579
       Q 264.041020 276.531481 271.342084 275.196813
       Q 278.425103 273.900330 285.670858 273.251532
       Q 292.808811 272.611998 300.000000 272.611998
       z"
  />

  <path
    style="stroke:black; stroke-width:3; fill:stroke:black; stroke-width:3; fill:red"
    d="M 195.361641 316.002992
       Q 199.739406 322.061983 204.905311 327.573023
       Q 209.769451 332.787088 215.276643 337.437896
       Q 220.504640 341.869272 226.253731 345.731668
       Q 231.198167 342.911022 236.359619 339.961732
       Q 241.141261 337.230600 246.098322 334.394653
       Q 250.754008 331.731905 255.550062 328.984428
       Q 251.674052 322.273174 248.274411 315.333279
       Q 244.817502 308.278543 241.890817 301.073197
       Q 238.861327 293.624833 236.427227 286.106473
       Q 229.035057 289.488917 222.316500 293.617855
       Q 214.959076 298.113450 208.519093 303.406379
       Q 201.312889 309.278515 195.361641 316.002992
       z"
  />



  <path
    style="stroke:black; stroke-width:3; fill:stroke:black; stroke-width:3; fill:red"
    d="M 255.658652 328.922125
       Q 258.596846 327.239260 261.584981 325.525976
       Q 264.492101 323.859299 267.441401 322.166656
       Q 270.323821 320.512507 273.241133 318.836577
       Q 269.738804 312.557374 266.729327 306.048512
       Q 263.674016 299.441619 261.266552 292.642447
       Q 258.783310 285.635128 257.021815 278.530579
       Q 253.537632 279.521329 250.141428 280.669918
       Q 246.655430 281.847384 243.273972 283.186130
       Q 239.789180 284.563661 236.427227 286.106473
       Q 238.861327 293.624833 241.890817 301.073197
       Q 244.817502 308.278543 248.274411 315.333279
       Q 251.674052 322.273174 255.550062 328.984428
       z"
  />


  <path
    style="stroke:black; stroke-width:3; fill:stroke:black; stroke-width:3; fill:blue"
    d="M 273.334398 318.783092
       Q 277.781523 316.228513 282.287207 313.636160
       Q 286.707581 311.092967 291.162563 308.525782
       Q 295.575556 305.982811 300.000000 303.429191
       Q 304.424444 305.982811 308.837437 308.525782
       Q 313.292419 311.092967 317.712793 313.636160
       Q 322.218477 316.228513 326.665602 318.783092
       Q 323.070008 325.008810 318.941531 330.859208
       Q 314.751087 336.798233 310.075532 342.263204
       Q 305.257710 347.897568 300.000000 352.946670
       Q 294.742290 347.897568 289.924468 342.263204
       Q 285.248913 336.798233 281.058469 330.859208
       Q 276.929992 325.008810 273.334398 318.783092
       z"
  />
  <path
    style="stroke:black; stroke-width:3; fill:stroke:black; stroke-width:3; fill:blue"
    d="M 255.550062 328.984428
       Q 250.754008 331.731905 246.098322 334.394653
       Q 241.141261 337.230600 236.359619 339.961732
       Q 231.198167 342.911022 226.253731 345.731668
       Q 226.710415 352.614479 227.918743 359.327505
       Q 229.177153 366.391235 231.243457 373.177132
       Q 233.415617 380.371844 236.455241 387.155949
       Q 245.295236 385.433295 254.021387 382.192924
       Q 261.860843 379.323162 269.464528 375.253967
       Q 276.429868 371.552328 283.080964 366.886724
       Q 277.802437 361.050787 272.876567 354.724562
       Q 268.109625 348.608508 263.732445 342.098637
       Q 259.426072 335.695682 255.550062 328.984428
       z"
  />
  <path
    style="stroke:black; stroke-width:3; fill:stroke:black; stroke-width:3; fill:blue"
    d="M 363.544759 387.155949
       Q 366.584383 380.371844 368.756543 373.177132
       Q 370.822847 366.391235 372.081257 359.327505
       Q 373.289585 352.614479 373.746269 345.731668
       Q 368.801833 342.911022 363.640381 339.961732
       Q 358.858739 337.230600 353.901678 334.394653
       Q 349.245992 331.731905 344.449938 328.984428
       Q 340.573928 335.695682 336.267555 342.098637
       Q 331.890375 348.608508 327.123433 354.724562
       Q 322.197563 361.050787 316.919036 366.886724
       Q 323.570132 371.552328 330.535472 375.253967
       Q 338.139157 379.323162 345.978613 382.192924
       Q 354.704764 385.433295 363.544759 387.155949
       z"
  />
  <path
    style="stroke:black; stroke-width:3; fill:stroke:black; stroke-width:3; fill:blue"
    d="M 346.969368 413.893234
       Q 341.241076 420.845190 334.499126 426.760206
       Q 327.216346 433.213573 318.923261 438.298345
       Q 309.928321 443.879342 300.000000 447.684322
       Q 290.071679 443.879342 281.076739 438.298345
       Q 272.783654 433.213573 265.500874 426.760206
       Q 258.758924 420.845190 253.030632 413.893234
       Q 262.064101 409.984682 270.941392 404.724280
       Q 278.794642 400.144201 286.428373 394.522772
       Q 293.346263 389.476173 300.000000 383.605230
       Q 306.653737 389.476173 313.571627 394.522772
       Q 321.205358 400.144201 329.058608 404.724280
       Q 337.935899 409.984682 346.969368 413.893234
       z"
  />
  <path
    style="stroke:black; stroke-width:3; fill:stroke:black; stroke-width:3; fill:blue"
    d="M 255.658652 328.922125
       Q 258.596846 327.239260 261.584981 325.525976
       Q 264.492101 323.859299 267.441401 322.166656
       Q 270.323821 320.512507 273.241133 318.836577
       Q 276.929992 325.008810 281.058469 330.859208
       Q 285.248913 336.798233 289.924468 342.263204
       Q 294.742290 347.897568 300.000000 352.946670
       Q 297.391676 355.453954 294.689441 357.804140
       Q 291.917175 360.217423 289.056333 362.457609
       Q 286.110073 364.767601 283.080964 366.886724
       Q 277.802437 361.050787 272.876567 354.724562
       Q 268.109625 348.608508 263.732445 342.098637
       Q 259.426072 335.695682 255.550062 328.984428
       z"
  />
  <path
    style="stroke:black; stroke-width:3; fill:stroke:black; stroke-width:3; fill:blue"
    d="M 347.075802 413.718916
       Q 350.529557 409.574553 353.573096 405.083895
       Q 356.488422 400.805548 359.006460 396.242013
       Q 361.425364 391.881034 363.461942 387.287381
       Q 354.704764 385.433295 345.978613 382.192924
       Q 338.139157 379.323162 330.535472 375.253967
       Q 323.570132 371.552328 316.919036 366.886724
       Q 314.291939 369.796108 311.589360 372.573171
       Q 308.809645 375.433801 305.958364 378.148108
       Q 303.012977 380.957662 300.000000 383.605230
       Q 306.653737 389.476173 313.571627 394.522772
       Q 321.205358 400.144201 329.058608 404.724280
       Q 337.935899 409.984682 346.969368 413.893234
       z"
  />
  <path
    style="stroke:black; stroke-width:3; fill:stroke:black; stroke-width:3; fill:blue"
    d="M 344.341348 328.922125
       Q 341.403154 327.239260 338.415019 325.525976
       Q 335.507899 323.859299 332.558599 322.166656
       Q 329.676179 320.512507 326.758867 318.836577
       Q 323.070008 325.008810 318.941531 330.859208
       Q 314.751087 336.798233 310.075532 342.263204
       Q 305.257710 347.897568 300.000000 352.946670
       Q 302.608324 355.453954 305.310559 357.804140
       Q 308.082825 360.217423 310.943667 362.457609
       Q 313.889927 364.767601 316.919036 366.886724
       Q 322.197563 361.050787 327.123433 354.724562
       Q 331.890375 348.608508 336.267555 342.098637
       Q 340.573928 335.695682 344.449938 328.984428
       z"
  />
  <path
    style="stroke:black; stroke-width:3; fill:stroke:black; stroke-width:3; fill:blue"
    d="M 252.924198 413.718916
       Q 249.470443 409.574553 246.426904 405.083895
       Q 243.511578 400.805548 240.993540 396.242013
       Q 238.574636 391.881034 236.538058 387.287381
       Q 245.295236 385.433295 254.021387 382.192924
       Q 261.860843 379.323162 269.464528 375.253967
       Q 276.429868 371.552328 283.080964 366.886724
       Q 285.708061 369.796108 288.410640 372.573171
       Q 291.190355 375.433801 294.041636 378.148108
       Q 296.987023 380.957662 300.000000 383.605230
       Q 293.346263 389.476173 286.428373 394.522772
       Q 278.794642 400.144201 270.941392 404.724280
       Q 262.064101 409.984682 253.030632 413.893234
       z"
  />
  <path
    style="stroke:black; stroke-width:3; fill:stroke:black; stroke-width:3; fill:blue"
    d="M 283.080964 366.886724
       Q 286.110073 364.767601 289.056333 362.457609
       Q 291.917175 360.217423 294.689441 357.804140
       Q 297.391676 355.453954 300.000000 352.946670
       Q 302.608324 355.453954 305.310559 357.804140
       Q 308.082825 360.217423 310.943667 362.457609
       Q 313.889927 364.767601 316.919036 366.886724
       Q 314.291939 369.796108 311.589360 372.573171
       Q 308.809645 375.433801 305.958364 378.148108
       Q 303.012977 380.957662 300.000000 383.605230
       Q 296.987023 380.957662 294.041636 378.148108
       Q 291.190355 375.433801 288.410640 372.573171
       Q 285.708061 369.796108 283.080964 366.886724
       z"
  />
  <path
    style="stroke:black; stroke-width:3; fill:stroke:black; stroke-width:3; fill:yellow"
    d="M 326.665602 318.783092
       Q 322.218477 316.228513 317.712793 313.636160
       Q 313.292419 311.092967 308.837437 308.525782
       Q 304.424444 305.982811 300.000000 303.429191
       Q 300.000000 298.321952 300.000000 293.223890
       Q 300.000000 288.077342 300.000000 282.966721
       Q 300.000000 277.757549 300.000000 272.611998
       Q 307.191189 272.611998 314.329142 273.251532
       Q 321.574897 273.900330 328.657916 275.196813
       Q 335.958980 276.531481 342.978185 278.530579
       Q 341.216690 285.635128 338.733448 292.642447
       Q 336.325984 299.441619 333.270673 306.048512
       Q 330.261196 312.557374 326.665602 318.783092
       z"
  />
  <path
    style="stroke:black; stroke-width:3; fill:stroke:black; stroke-width:3; fill:yellow"
    d="M 344.449938 328.984428
       Q 349.245992 331.731905 353.901678 334.394653
       Q 358.858739 337.230600 363.640381 339.961732
       Q 368.801833 342.911022 373.746269 345.731668
       Q 379.495360 341.869272 384.723357 337.437896
       Q 390.230549 332.787088 395.094689 327.573023
       Q 400.260594 322.061983 404.638359 316.002992
       Q 398.687111 309.278515 391.480907 303.406379
       Q 385.040924 298.113450 377.683500 293.617855
       Q 370.964943 289.488917 363.572773 286.106473
       Q 361.138673 293.624833 358.109183 301.073197
       Q 355.182498 308.278543 351.725589 315.333279
       Q 348.325948 322.273174 344.449938 328.984428
       z"
  />


  <path
    style="stroke:black; stroke-width:3; fill:stroke:black; stroke-width:3; fill:yellow"
    d="M 344.341348 328.922125
       Q 341.403154 327.239260 338.415019 325.525976
       Q 335.507899 323.859299 332.558599 322.166656
       Q 329.676179 320.512507 326.758867 318.836577
       Q 330.261196 312.557374 333.270673 306.048512
       Q 336.325984 299.441619 338.733448 292.642447
       Q 341.216690 285.635128 342.978185 278.530579
       Q 346.462368 279.521329 349.858572 280.669918
       Q 353.344570 281.847384 356.726028 283.186130
       Q 360.210820 284.563661 363.572773 286.106473
       Q 361.138673 293.624833 358.109183 301.073197
       Q 355.182498 308.278543 351.725589 315.333279
       Q 348.325948 322.273174 344.449938 328.984428
       z"
  />




</svg>